/* XPM */
static char *_b73dd86814646b2819ba134d5e8d2f6V58WPwODdT4csaRg[] = {
/* columns rows colors chars-per-pixel */
"40 40 207 2 ",
"   c #5D573D",
".  c #7A533B",
"X  c #2C4E4C",
"o  c #2C4D46",
"O  c #314F4F",
"+  c #2D514C",
"@  c #28574D",
"#  c #33534D",
"$  c #39534E",
"%  c #33594C",
"&  c #3B5A4E",
"*  c #315547",
"=  c #2D4E53",
"-  c #2B4F59",
";  c #274F57",
":  c #324F52",
">  c #255553",
",  c #2D5253",
"<  c #2B5259",
"1  c #2A5A51",
"2  c #345453",
"3  c #3A5552",
"4  c #335951",
"5  c #395853",
"6  c #39545B",
"7  c #3F5D59",
"8  c #345758",
"9  c #3D644D",
"0  c #45564D",
"q  c #4C554C",
"w  c #4E584D",
"e  c #475447",
"r  c #52544E",
"t  c #5A5647",
"y  c #425D5A",
"u  c #475453",
"i  c #565B54",
"p  c #6A4E40",
"a  c #6C5B44",
"s  c #6C5A4B",
"d  c #635846",
"f  c #725B4B",
"g  c #795C48",
"h  c #724D44",
"j  c #43644D",
"k  c #496949",
"l  c #536E4F",
"z  c #5B7B44",
"x  c #557549",
"c  c #59744B",
"v  c #5B794C",
"b  c #517547",
"n  c #436351",
"m  c #44625D",
"M  c #486853",
"N  c #577253",
"B  c #627F51",
"V  c #4B6864",
"C  c #4C6B6E",
"Z  c #50676E",
"A  c #53696E",
"S  c #5A706E",
"D  c #536970",
"F  c #506671",
"G  c #577374",
"H  c #627C71",
"J  c #7C6F69",
"K  c #8B4F33",
"L  c #8A5236",
"P  c #95593F",
"I  c #AA4D2D",
"U  c #B4522F",
"Y  c #A04F3C",
"T  c #B15C3D",
"R  c #AE5034",
"E  c #94623F",
"W  c #BB633F",
"Q  c #C54F1F",
"!  c #DC4B1E",
"~  c #D04C1C",
"^  c #DE501E",
"/  c #E34A1D",
"(  c #EB481C",
")  c #C64E28",
"_  c #DD4B23",
"`  c #D64B28",
"'  c #CF5933",
"]  c #C65537",
"[  c #D9572E",
"{  c #E34D23",
"}  c #EA4D23",
"|  c #EB5228",
" . c #ED5A2A",
".. c #E45527",
"X. c #F2592B",
"o. c #EE5C32",
"O. c #F25F34",
"+. c #C5613D",
"@. c #D8613F",
"#. c #F6632F",
"$. c #E5663C",
"%. c #EC653C",
"&. c #EC6535",
"*. c #F46433",
"=. c #FD6634",
"-. c #FD6935",
";. c #FD663B",
":. c #F66A3B",
">. c #FC693C",
",. c #F46838",
"<. c #9B5E45",
"1. c #935C4A",
"2. c #9A5744",
"3. c #806345",
"4. c #956049",
"5. c #986145",
"6. c #AE6343",
"7. c #BE6442",
"8. c #B96346",
"9. c #B57667",
"0. c #CD6142",
"q. c #C36141",
"w. c #DD795D",
"e. c #D36149",
"r. c #EB6240",
"t. c #FD6641",
"y. c #FD6941",
"u. c #F46844",
"i. c #E3795F",
"p. c #E3765F",
"a. c #DC7962",
"s. c #E87C63",
"d. c #648548",
"f. c #769645",
"g. c #7A9644",
"h. c #769946",
"j. c #749749",
"k. c #7A954B",
"l. c #7A9B46",
"z. c #6D9944",
"x. c #7CA142",
"c. c #8AAB3A",
"v. c #83A63E",
"b. c #8FB13E",
"n. c #94BA3A",
"m. c #A9C82F",
"M. c #A7C52E",
"N. c #ADCC34",
"B. c #A6C63D",
"V. c #AAC43D",
"C. c #AACA3E",
"Z. c #A5C736",
"A. c #B0CF36",
"S. c #B1CF39",
"D. c #ACD239",
"F. c #B3D236",
"G. c #BBDB36",
"H. c #B5D43B",
"J. c #B9D63C",
"K. c #B6D93B",
"L. c #BBDA3C",
"P. c #B5DF35",
"I. c #C1DA3D",
"U. c #859C44",
"Y. c #8BAC44",
"T. c #85A54A",
"R. c #8FB344",
"E. c #91B244",
"W. c #9BB940",
"Q. c #B28D7A",
"!. c #EE8B6D",
"~. c #A6C641",
"^. c #A6C943",
"/. c #A9C844",
"(. c #ACC742",
"). c #B6D342",
"_. c #BAD343",
"`. c #BBDA41",
"'. c #B9D449",
"]. c #C1DB46",
"[. c #627785",
"{. c #647987",
"}. c #687A88",
"|. c #617888",
" X c #7C8280",
".X c #7B8895",
"XX c #7D899B",
"oX c #738B92",
"OX c #88979E",
"+X c #8C8994",
"@X c #B48D8C",
"#X c #B98D8E",
"$X c #B78D91",
"%X c #A58C90",
"&X c #898FA6",
"*X c #8A90A3",
"=X c #8B91AA",
"-X c #8798A5",
";X c #8BA3A3",
":X c #A2A8B4",
">X c #CC9C98",
",X c #DEB3AD",
"<X c #E0BFB8",
"1X c #D4CABE",
"2X c #B6BDC6",
"3X c #C2D0DB",
"4X c #C9D0D9",
/* pixels */
"G.~.g.j = , 4 3 2 2 5 # : 6 z n.P.L.L.`.`.).K.L.I.I.L.P.L.L.L.L.K.G.I.L.`.G.K._.",
"L.~.g.j , 2 # 2 # 3 5 * + 6 b v.^./.(.C.D.H.C.C.B.B.B.B.B.Z.B.B.~.B.V.~.^.D.F.J.",
"L.~.f.j = 2 # # , , 2 2 , 8 M d.g.k.k.c.Z.H.W.U.z.f.j.k.k.j.l.j.g.g.f.f.x.n.D.K.",
"G.B.f.j 2 , # 5 4 < 2 $ 2 2 4 0 k n k d.n.^.l.c j j j n n n j j j j & 9 b x.^.K.",
"G.B.h.j = , 5 A d.[.V $ + 8 2 # > ; 2 k h.T.d.5 : O = , , 1 , O X , - ; 0 j.~.].",
"J.B.h.j = = n oX:X;XG 2 @ > < < = = 4 & l N M % < < = , > > , , 3 , < - 9 g.V.G.",
"I.B.h.j X = V OX4X:X Xw e e w r r u 3 , 5 4 # 8 2 u w q w w w r u $ + , j g.(.P.",
"G.B.h.j = + V ;X4X4XQ.<.2.5.5.E 3.d 3 < < @ X : t f 4.<.<.4.1.1.i 0 3 + j f.^.K.",
"J.(.h.j = o V ;X3X<X!.r.&.&.$.%.e.1.w @ , 5 # 4 a T r.$.$.%.$.@.4.q , , j h.B.L.",
"J.B.f.j X o m XX2X,X!.:.>.>.:.>.$.T . t d p p p E 0.>.>.:.;.y.$.4.q < , j h.B.L.",
"L.B.f.j , O 7 oX:X>X!.>.;.>.>.;.,.[ U I I I I I ] %.;.;.>.>.>.$.5.q < , j f.B.L.",
"L.B.f.j , X 7 {.*X@Xw.,.-.>.>.;.-. ._ ! ~ ! ! ! [ #.=.;.;.;.>.$.1.q , > n h.B.L.",
"L.B.h.j : # 7 |.*X@Xw.u.-.:.>.>.,. .} ( / / / / | #.,.:.>.;.:.$.5.w , , j j.B.L.",
"L.B.h.j = X 7 [.=X@Xs.y.;.;.y.;.,. .} / / ! ! / | #.>.y.;.;.>.r.5.q < + n l.Z.L.",
"L.B.f.M = + y |.=X@Xp.;.O.;.;.;.:.o.{ _ ! _ ! ! | *.>.>.>.-.>.r.1.r > = j f.V.L.",
"].Z.f.j = O m |.-X@Xw.:.=.=.y.>.;. .^ ! _ _ _ ! ..*.:.y.>.-.:.r.1.w < , M j.B.I.",
"L.Z.g.j , + y [.=X$Xs.>.-.-.y.;.%.o.{ { ! ! ! _ } o.y.t.;.;.>.$.<.0 > 2 9 j.(.J.",
"`.B.f.j , + 7 [.&X@Xp.y.=.;.;.>.=.X.{ ! ! ! ! ! ..o.;.>.,.-.-.$.<.q < : 9 z.B.L.",
"L.B.f.j = + 7 {.*X@Xa.u.;.;.:.:.*.| / ! ! ! ! / ..O.t.:.,.;.y.$.1.w 2 : j h.C.L.",
"L.B.f.M , + y {.*X%X9.8.q.q.q.7.+.' _ / / ! / / ` ' 0.7.W 0.0.6.f 0 : 2 9 f.Z.G.",
"`.B.g.M = + y }.&X+XJ f a s f f g R ` ( ( / _ } ) L a s s f f d r 5 , < n f.V.L.",
"L.B.f.j + + y }.=X.XA $ * 4 : 2 e . U ` ~ Q ) ) Y   % 2 2 4 # % # 2 1 : m g.B.].",
"`.B.f.j = + y }.=X.XC @ + , , > $ t . K K K L K h e + < , + X + , X + = 9 f.Z.`.",
"L.~.g.j # + y }.*X.XA 5 O 4 2 4 3 3 e e e r u e 0 % 2 2 1 1 5 8 8 3 4 : n h.Z.`.",
"L.B.f.j = + y }.=XXXZ # + & 2 : , , , , , , > < , 2 & k c z z z v v v v d.c.C.P.",
"L.(.h.n = + y }.&X.XA 8 , 4 2 : 2 , , = 2 = = = - = 5 B T.E.E.Y.E.E.Y.Y.E.~.(.J.",
"L.B.h.n : + y }.*X.XA 8 , 2 $ 9 j j j j n n j j 7 & x l.^.G._.'.H.K.H.K.H.J._._.",
"L.B.f.j = X y }.*XXXZ 6 = 4 k d.f.h.f.f.h.j.j.j.j.z.U.n.N.G.G.J.H.L.G.G.G.F.H.J.",
"L.B.f.j = + y }.*XXXZ 2 X & b T.B.(.B.B.~.~.~.~.B.~.(.S.).J.J.J.).S.J.H.H.H.H.H.",
"L.B.g.n = + y }.&XXXZ 5 X % z R.K.L.L.G.G.L.L.L.G.L.G.H.).'.K.F.H.G._.).).).H.H.",
"L.B.h.n : X y }.*XXXF 5 X 4 z R.K.L.L.K.J.J.K.L.J.J.H.K.J.H.H.H.F.H.H.H.).K.J.H.",
"L.B.g.n = X y }.&XXXZ 4 : 3 v Y.H.K.H.H.H.H.H.H.H.H.H.F.G.F.H.'.).).J.H.K.H.H.H.",
"L.B.h.j = + y }.=X.XD 3 X 2 v E.K.J.H.H.J.H.H.H.H.).L.H.H.H.H.J.H.H.J.).K.H.H.H.",
"L.^.h.n = + y }.&X.XD 5 X 2 v E.F.L.J.H.H.K.J.H.J.H.H.H.J.H.H.H.J.H.J.H.H.H.H.H.",
"L.B.g.j : X y }.&X.XA 2 X 3 x c.A.J.J.J.H.A.H.J.K.H.H.H.J.K.A.A.H.H.H.H.A.H.H.H.",
"L.B.g.n = X y }.=X.XA 3 X 4 x c.m.F.H.S.N.N.A.H.H.N.N.N.H.S.A.N.N.H.H.N.N.H.H.J.",
"L.B.f.n = + y }.=X.XD 2 X 4 x c.M.F.S.A.N.M.S.S.N.N.N.N.S.S.N.m.N.F.F.N.N.F.H.H.",
"L.B.g.n : + y }.=X.XD 5 X 4 x c.A.F.A.A.S.N.S.S.N.N.N.N.N.S.S.S.A.N.N.N.N.F.H.H.",
"L.^.h.j = + y }.&X.XA 2 X 5 c c.A.S.M.N.S.S.S.m.N.S.S.S.N.V.S.S.N.N.m.N.H.H.H.J.",
"L.B.h.j = + y }.&X.XD 2 X 5 v E.H.A.M.N.H.S.A.M.m.S.).N.M.m.S.H.N.m.m.F.K.H.H.H."
};
