/* XPM */
static char *_1b558d8d2d74af4d8ef01067ac332360y3QdjGU3nwjafsw[] = {
/* columns rows colors chars-per-pixel */
"40 40 180 2 ",
"   c #314F48",
".  c #2F514D",
"X  c #34544C",
"o  c #36594D",
"O  c #3A5C4D",
"+  c #395749",
"@  c #355651",
"#  c #385751",
"$  c #365953",
"%  c #3B5B51",
"&  c #355D5C",
"*  c #395F5B",
"=  c #3E624B",
"-  c #3F6250",
";  c #2D5E60",
":  c #325F60",
">  c #2B676F",
",  c #346264",
"<  c #386667",
"1  c #2A6A74",
"2  c #2A6D79",
"3  c #2C727F",
"4  c #33737C",
"5  c #455E51",
"6  c #486847",
"7  c #42644C",
"8  c #48674E",
"9  c #47694B",
"0  c #4B6D4C",
"q  c #536C4E",
"w  c #4D714B",
"e  c #54764A",
"r  c #5A744E",
"t  c #55794A",
"y  c #5B7B4C",
"u  c #426351",
"i  c #4A6350",
"p  c #45635B",
"a  c #49665A",
"s  c #4C695A",
"d  c #536652",
"f  c #5D6653",
"g  c #5B6B51",
"h  c #657C4D",
"j  c #687F4D",
"k  c #777F4F",
"l  c #6A7351",
"z  c #777852",
"x  c #4F6C63",
"c  c #536B6E",
"v  c #59716E",
"b  c #526B70",
"n  c #5B7574",
"m  c #69777E",
"M  c #6B797E",
"N  c #8A7C54",
"B  c #658747",
"V  c #678947",
"C  c #628349",
"Z  c #6D844B",
"A  c #6D8C49",
"S  c #738B4A",
"D  c #7A884C",
"F  c #7B9548",
"G  c #7A9548",
"H  c #B8CF3F",
"J  c #B6D53C",
"K  c #82894E",
"L  c #948F4F",
"P  c #829C47",
"I  c #86944B",
"U  c #89964B",
"Y  c #829A48",
"T  c #899C49",
"R  c #8B9F46",
"E  c #999A4C",
"W  c #98924F",
"Q  c #8D8751",
"!  c #9A8753",
"~  c #AA9D4F",
"^  c #8BA445",
"/  c #8EA944",
"(  c #8FA249",
")  c #93A547",
"_  c #96AB45",
"`  c #9EAB46",
"'  c #9DA449",
"]  c #9EA848",
"[  c #A2AC47",
"{  c #A0A748",
"}  c #A2A948",
"|  c #ADAE49",
" . c #A8A44B",
".. c #B2AD49",
"X. c #A6B445",
"o. c #ADB646",
"O. c #ABBB43",
"+. c #A7B944",
"@. c #B1BD44",
"#. c #ADC241",
"$. c #B2C342",
"%. c #B8CC40",
"&. c #25798B",
"*. c #2C7989",
"=. c #337681",
"-. c #327D8B",
";. c #237E94",
":. c #687780",
">. c #697B83",
",. c #29869C",
"<. c #30869A",
"1. c #1B8DAD",
"2. c #1E88A4",
"3. c #1B96BA",
"4. c #2D8CA2",
"5. c #218EAC",
"6. c #308EA5",
"7. c #2E9BB9",
"8. c #508191",
"9. c #758788",
"0. c #7C8997",
"q. c #7C8898",
"w. c #7C8796",
"e. c #67898C",
"r. c #7B91A6",
"t. c #7A9FBA",
"y. c #68AABC",
"u. c #159CC5",
"i. c #149EC9",
"p. c #209EC4",
"a. c #1AA4CE",
"s. c #0FA7D7",
"d. c #0FA7D8",
"f. c #0FA9DB",
"g. c #11A5D4",
"h. c #13A9D9",
"j. c #19AEDE",
"k. c #17A7D4",
"l. c #2EA5C6",
"z. c #2DA6C9",
"x. c #26A5CB",
"c. c #30A4C6",
"v. c #2DADD3",
"b. c #23ABD4",
"n. c #19AFE0",
"m. c #1EB4E5",
"M. c #1EB7E8",
"N. c #27B7E3",
"B. c #2DB7E1",
"V. c #2DB9E4",
"C. c #24BCEC",
"Z. c #2DBCE9",
"A. c #24BEF0",
"S. c #4EA3C2",
"D. c #7AA9C8",
"F. c #79A8C7",
"G. c #4CBAE4",
"H. c #4CBDE8",
"J. c #2CC5F5",
"K. c #2BC7F9",
"L. c #27C8FC",
"P. c #2CC9FC",
"I. c #53C2EB",
"U. c #5CCCF3",
"Y. c #63C6E7",
"T. c #8E9E9C",
"R. c #849291",
"E. c #8EA09E",
"W. c #8892A5",
"Q. c #8690A5",
"!. c #98A7A7",
"~. c #9AA4B4",
"^. c #89B8D4",
"/. c #AFBFC4",
"(. c #B4BEC8",
"). c #B5D2DD",
"_. c #9FCFE6",
"`. c #AED9EA",
"'. c #C4CED1",
"]. c #CAD3D7",
/* pixels */
"J J ` S 0 % $ @ @ @ @ @ X 8 k J J J J J J J J J J %.J J J J J J J J J J J J J J ",
"J J [ G w - % @ @ @ @ @ @ 7 l J J J J J J J J J J J J H J J J J J J J J J J J J ",
"J J X.G e 7 O X @ . X @ @ % d z Q L E  .J J ..{ ] ' ' ' E ' ' ' ' E ' ] [ @.J J ",
"J J X.F t u % @ @ @ @ @ @ @ O i q q l K J J W D C h h h h h h h h h Z A T X.J J ",
"J J +.F t u u c n n p X   @ X o o o 7 g N ! z q 7 7 = 7 7 7 7 7 7 u 0 t F X.J J ",
"J J +.F e = a 9.!.T.v X   X X X X X $ 5 f f i 5 o o X + X + X X X % u t F +.J J ",
"J J X.G t = x E.)./.e.< ; : , , , $ @ @ # @ # # $ , , , , , , , & % 7 e F O.J J ",
"J J +.G t = x E.].).F.6.4.4.6.6.<.4 $ X       @ , -.6.6.6.6.6.<.=.- O e G O.J J ",
"J J X.F t = s T.'.`.I.B.N.V.Z.Z.v.,.: X @ @ X @ 4 7.V.Z.V.Z.Z.v.<., O 0 G X.J J ",
"J J X.G e = s R.(.`.U.J.L.K.P.P.Z.7.*.1 1 2 1 2 ,.v.K.P.K.P.P.V.6.< + q S X.J J ",
"J J X.F t 7 a 9.~.^.I.J.P.K.P.P.J.b.3.1.1.1.1.1.a.N.K.P.K.P.P.Z.6., o 6 Z } J J ",
"J J X.F t 7 p M Q.^.G.J.K.J.J.J.A.N.g.i.g.s.g.g.j.N.J.J.J.K.K.V.6., + 7 j } J J ",
"J J X.F t 7 p m Q.F.G.J.J.J.J.K.J.M.h.d.h.d.d.g.j.J.J.J.J.K.P.V.6.: o 5 Z E J J ",
"J J X.F t 7 a m Q.F.G.J.K.J.K.J.A.m.h.g.g.g.s.g.j.Z.J.J.J.K.P.V.6., + 7 j ' J J ",
"J J +.F t 7 a m W.D.G.J.K.J.J.K.A.m.h.g.g.g.g.g.j.C.J.P.J.J.P.V.6., o 7 j ' J J ",
"J J +.F t 7 p m W.F.G.J.K.J.K.J.J.N.h.g.g.g.g.g.j.C.J.J.J.P.J.V.6.< + 7 Z } J J ",
"J J X.G e = p :.W.D.G.J.L.J.J.J.A.M.h.g.g.g.g.g.j.C.J.K.K.P.P.B.6.< + 7 Z } J J ",
"J J X.G e - p :.W.D.H.J.P.P.P.P.K.M.h.g.g.g.g.g.n.C.K.K.P.P.P.Z.6.< O 6 Z } J J ",
"J J X.G w = 5 :.W.D.G.J.K.J.J.J.C.m.h.g.s.g.s.g.j.C.J.J.J.K.P.B.6.< O 9 Z ' J J ",
"J J X.S w = p :.W.t.S.c.x.l.l.l.z.x.h.g.g.s.s.s.k.x.l.c.c.c.c.7.;.- O 9 Z { J J ",
"J J { S w = p >.W.r.8.=.=.=.=.4 *.5.i.f.f.d.d.d.u.,.=.4 =.=.=.4 < & % 8 Z } J J ",
"J J { S 0 O p >.W.q.b $ @ @ . @ : &.3.i.i.i.i.u.5.1 $ X % % % % - - u 0 Z { J J ",
"J J { S 0 % 5 >.Q.w.c X   X X   @ > &.;.;.;.;.;.2 & O + + = 8 6 w 0 w y S { J J ",
"J J ] Z 8 % p >.Q.q.c @   @ X X @ & & , : : , & & $ % u e r h C V A A A Y X.J J ",
"J J { Z w O p >.Q.R.b @ . @ @ @ @ O o O O O O O O 7 0 h D U ( ) _ _ _ _ ` O.J J ",
"J J { S 0 = p >.W.q.b @ . @ @ % % O 7 7 9 8 6 8 8 w h U  .@.$.$.$.$.$.$.$.J J J ",
"J J [ S 0 = p >.Q.q.b @ . # 5 i q g h h Z Z Z Z Z A Y [ J J J J J J J J J J J J ",
"J J [ S w = p >.Q.q.b @ @ % d z Q W E ' ` } { ] ] ] X.@.J J J J J J J J J J J J ",
"J J X.G w = p >.W.q.c # X u l ! J J J J J J J J J J J J J J J J J J J J J J J J ",
"J J X.F e = p >.W.q.c % o i D  .J J J J J J J J J J J J J J J J J J J J J J J J ",
"J J +.F t 7 p >.W.q.b % = 0 D | J J J J J J J J J J J J J J J J J J J J J J J J ",
"J J O.F t 8 p >.W.0.c % = e U o.J J J J J J J J J J J J J J J J J J J J J J J J ",
"J J +.P C = a m Q.0.c = = r ( #.%.J J J J J J J J J J J J J J J J J J J J J J J ",
"J J O.^ C 9 a e.Q.0.c % 7 y ( $.J J J J J J J J J J J J J J J J J J J J J J J J ",
"J J #.^ B 0 x >.Q.0.c % 7 y ( $.J J J J J J J J J J J J J J J J J J J J J J J J ",
"J J #./ V 0 p >.W.0.c O = y ( #.J J J J J J J J J J J J J J J J J J J J J J J J ",
"J J #./ V w x >.W.q.b % - y T #.J J J J J J J J J J J J J J J J J J J J J J J J ",
"J J #.^ V w b >.W.q.c @ o e T O.J J J J J J J J J J J J J J J J J J J J J J J J ",
"J J #.^ B w s Z W.w.c @ $ q I o.%.J J J J J J J J J J J J J J J J J J J J J J J ",
"J J #.^ C 0 a M W.q.b @ o i D | J J J J J J J J J J J J J J J J J J J J J J J J "
};
