/* XPM */
static char *result[] = {
/* columns rows colors chars-per-pixel */
"40 40 143 2 ",
"   c #2F4F4B",
".  c #324F49",
"X  c #2D524E",
"o  c #31524D",
"O  c #2E5350",
"+  c #345551",
"@  c #3A5751",
"#  c #345957",
"$  c #3D5953",
"%  c #335C5C",
"&  c #3F5D5C",
"*  c #2E5E60",
"=  c #305F61",
"-  c #2B676F",
";  c #336264",
":  c #336569",
">  c #2A6A74",
",  c #2A6D79",
"<  c #2B727F",
"1  c #32727C",
"2  c #455A53",
"3  c #495B53",
"4  c #405D5C",
"5  c #555F54",
"6  c #5B5E52",
"7  c #43615D",
"8  c #5C6054",
"9  c #616255",
"0  c #6C6556",
"q  c #7F6B57",
"w  c #466361",
"e  c #486563",
"r  c #4E6B68",
"t  c #526A6F",
"y  c #59716E",
"u  c #526B70",
"i  c #587270",
"p  c #5E7877",
"a  c #67757E",
"s  c #68767F",
"d  c #826C58",
"f  c #8B6E58",
"g  c #946D54",
"h  c #937159",
"j  c #9E745A",
"k  c #A3755B",
"l  c #A8775B",
"z  c #AC785B",
"x  c #B67454",
"c  c #BB7656",
"v  c #B77B5C",
"b  c #BB7B5B",
"n  c #C47D5B",
"m  c #C87F5C",
"M  c #C7805E",
"N  c #CB815E",
"B  c #D1835F",
"V  c #2A7786",
"C  c #25798B",
"Z  c #2E7B8B",
"A  c #327682",
"S  c #327D8B",
"D  c #227E94",
"F  c #687780",
"G  c #687A84",
"H  c #29869C",
"J  c #30869A",
"K  c #1E88A4",
"L  c #1B8DAD",
"P  c #1D95B7",
"I  c #1994B8",
"U  c #1A99BF",
"Y  c #2D8CA2",
"T  c #218EAC",
"R  c #308EA5",
"E  c #2E9BB9",
"W  c #508191",
"Q  c #67898C",
"!  c #738187",
"~  c #748A8A",
"^  c #7C8796",
"/  c #7C8898",
"(  c #7B91A6",
")  c #7A9FBA",
"_  c #68AABC",
"`  c #159CC5",
"'  c #149EC9",
"]  c #209EC4",
"[  c #14A2CE",
"{  c #1FA6CE",
"}  c #0FA7D7",
"|  c #0FA7D8",
" . c #0FA9DB",
".. c #11A5D4",
"X. c #19A6D2",
"o. c #15A8D6",
"O. c #13A9D9",
"+. c #19AEDE",
"@. c #2EA5C6",
"#. c #2DA6C9",
"$. c #26A5CB",
"%. c #30A4C6",
"&. c #2DADD3",
"*. c #23ABD4",
"=. c #19AFE0",
"-. c #1EB4E5",
";. c #1EB7E8",
":. c #27B7E3",
">. c #2DB7E1",
",. c #2DB9E4",
"<. c #24BCEC",
"1. c #2DBCE9",
"2. c #24BEF0",
"3. c #4EA3C2",
"4. c #78A7C6",
"5. c #7AA8C7",
"6. c #7AA9C8",
"7. c #4CBAE4",
"8. c #4CBDE8",
"9. c #2CC5F5",
"0. c #2BC7F9",
"q. c #27C8FC",
"w. c #2CC9FC",
"e. c #53C2EB",
"r. c #5CCCF3",
"t. c #63C6E7",
"y. c #8D9D9D",
"u. c #839193",
"i. c #8690A5",
"p. c #8892A6",
"a. c #8D9FA0",
"s. c #9CABAE",
"d. c #92A2A2",
"f. c #9AA4B4",
"g. c #89B8D4",
"h. c #AFBFC4",
"j. c #B4BEC8",
"k. c #B5D2DD",
"l. c #9FCFE6",
"z. c #AED9EA",
"x. c #C4CED2",
"c. c #C6D0D5",
"v. c #CDD6DB",
/* pixels */
"B b d 2 O + + + + + + + X @ 9 k N B B B N N N B B B B B B B B B B B B B B B N N ",
"B b d 2 + O + + + + + + O + 8 h b b b M M N M b b b b v v v b v v v v b v M N N ",
"B b d 2 + O + X X X o o + + 3 0 d d d j b M l f q q d d d d d d q d q q f l M N ",
"B v d 2 O + + + @ @ @ @ + + @ $ 2 2 7 0 l v f 8 2 2 2 2 2 3 3 7 2 2 2 2 8 f v N ",
"B v d 2 O X $ r y y 7 . o o o o . X X 8 q f 0 $ X X X o o o X o O O O X 2 d v B ",
"B b d 2 O X w ~ s.u.y @ . o o o X X o 2 8 8 3 @ X o o o o . o o o X O O 2 d v B ",
"B b d 2 X X w a.c.k.Q : % ; : : = # + @ + o + @ # = ; ; ; ; ; = % @ + X 2 d v B ",
"B b q 2 X X w d.v.k._ R H R R R J 1 # . X X . o ; S R R R R R J 1 % o X 2 d b B ",
"B v d 2 X   w y.c.z.t.,.:.,.,.1.&.H ; o o + o + 1 E ,.,.,.,.9.#.J ; o o 2 d v B ",
"B v d 2 X X w u.j.l.r.0.w.w.w.w.1.E V > , , > , H &.0.w.w.w.w.,.R ; o o 2 d b B ",
"B b d 2 X X 7 ! f.g.e.0.0.0.w.w.9.*.P L L L L L $.:.9.0.9.0.w.9.R ; . o 2 d b B ",
"B v d 2 O X 4 s p.5.7.9.0.9.9.9.9.-.o.[ ....[ ..+.<.9.9.9.0.0.>.Y ; o X 2 d b B ",
"B v d 2 O X & a p.5.7.9.9.9.w.9.1.-.O.| O.O.} } +.<.9.9.9.w.w.>.R ; o o 7 d v B ",
"B b d 2 X o 4 s p.5.7.9.0.9.9.9.9.-.O.} ....} ..+.9.9.9.9.w.w.>.R ; o o 3 d v B ",
"B b f 2 O X 7 s p.6.8.9.0.9.9.9.9.-.O...........+.<.9.w.9.w.w.>.R = . o 3 d v B ",
"B v d 7 X X 4 s p.6.7.9.q.9.0.0.<.-.o...........+.<.9.9.9.9.w.>.R ; o o 2 d b B ",
"B b d 2 X X 4 a p.5.7.9.0.9.9.w.9.-.O.} ........O.<.9.0.0.w.w.>.R ; o o 2 d v B ",
"B b d 2 O X 4 s p.6.8.0.w.w.w.w.9.;.o...........=.<.0.0.w.w.w.1.R ; . o 2 d b B ",
"B b d 2 X X & F p.6.7.9.0.9.9.9.1.-.o.} ....} } +.<.9.9.9.0.w.>.J ; o X 2 d b B ",
"B b d 2 o X 7 F p.) 3.@.#.@.%.%.#.{ ..} } } } } X.$.@.@.%.%.%.E J = o o 2 d b B ",
"B v d 2 X X 4 F p.( W A < A 1 1 Z L [  . . . .} U H A 1 A A A 1 : # O O 2 d b B ",
"B v d 2 o X 4 G p./ u # o + + + = C I ' ` ` ' ` T > # o # + + + + + + O 2 d v B ",
"B v d 2 X X 7 G p./ t @ . o o . + - C D D D D D , % o . .   o X O O O O 2 q b B ",
"B v d 3 X X 4 F p./ t o o @ o + + % % * ; % ; % % + + + + @ + + + @ O + 3 d b B ",
"B v d 2 + X & G p./ u + + + + + + o o o o o o o O O o 3 6 9 9 9 8 9 8 8 0 j b B ",
"B b d 2 X X 4 G p./ u + o + + o O X + o o o X + X O $ 0 h k k j j j j j k v N N ",
"B v f 2 X X 4 G p./ r + X + @ $ 2 2 2 2 2 2 2 2 2 $ 5 d b B N m N N N N N N N N ",
"B b d 7 X X 4 G p./ u + X + 3 0 q d q q d q q q q q f l M B B B B B N N N N N N ",
"B b d 2 X X 7 G i./ t + X + 8 h v M b v b b b b v b b n M B N N N M N N N N N N ",
"B b d 2 O X 4 G p./ t @ X + 9 k N B N B B B N B B B B N B M N N N N N N N N N N ",
"B b d 2 O X 4 F p./ t + X o 9 k N B B N B N N B B B N N B M N N N N N N N N N N ",
"B b d 2 X X 7 G p./ t @ X + 8 k N B N N N N N M M M N N N M N N N N N N N N N N ",
"B b d 2 O o 4 G p./ t + X + 9 k m B B B m B N N N N N N N N N N N N N N N N N N ",
"B v d 2 X X 4 G p./ u + X + 9 j m m B m N m N N N N N N N N N N N N N N N N N N ",
"B v d 2 X X 4 G p./ t + X + 8 j m m m m m n n N N m n m m m m m m N m n n m N N ",
"B v d 2 O X 4 G p./ t + X o 6 g c m m n n c n m n c c n m n n c n m n n c n m N ",
"B v d 3 X X 4 G p./ u + X + 6 g x n m n c c n n n c x n n n c x n n n c x n m N ",
"B b d 3 O X & G p./ t + X o 6 g c n n c n c c n c n n c n c c n n c c n n n N N ",
"B v d 3 X X 7 G p./ t + X + 9 j n n c c n n n x c n m c x c n m c x c n m N N N ",
"B b d 7 X o & G p./ t + X + 9 k m n x x n m c x c n m n x x n m c c c n m N N N "
};
