/* XPM */
static char *_8257d6408d544c9c6b28a2c4bdeab2aj7lxBw5h0Xr80ZkW[] = {
/* columns rows colors chars-per-pixel */
"40 40 211 2 ",
"   c #67543C",
".  c #72523B",
"X  c #1F545A",
"o  c #2B4C4E",
"O  c #2B534D",
"+  c #2E584B",
"@  c #33544D",
"#  c #3A554E",
"$  c #34594D",
"%  c #3D5D4C",
"&  c #2A4D52",
"*  c #274D59",
"=  c #314F51",
"-  c #384F56",
";  c #255453",
":  c #2C5453",
">  c #2F5059",
",  c #2B5658",
"<  c #355552",
"1  c #395454",
"2  c #335954",
"3  c #3A5B55",
"4  c #345359",
"5  c #395458",
"6  c #355859",
"7  c #3E614C",
"8  c #3E6257",
"9  c #4B5646",
"0  c #4C534B",
"q  c #47594D",
"w  c #51564D",
"e  c #565749",
"r  c #435453",
"t  c #445E54",
"y  c #4C5D53",
"u  c #475856",
"i  c #525753",
"p  c #684F42",
"a  c #665343",
"s  c #6E5B4A",
"d  c #675648",
"f  c #715A4C",
"g  c #7A5B47",
"h  c #6B5D52",
"j  c #43644E",
"k  c #46694E",
"l  c #4E724C",
"z  c #5A7546",
"x  c #54724B",
"c  c #597A4A",
"v  c #436251",
"b  c #476950",
"n  c #587050",
"m  c #577752",
"M  c #974F34",
"N  c #8A523B",
"B  c #865136",
"V  c #874F38",
"C  c #AF4E2C",
"Z  c #A94E2A",
"A  c #B54C2D",
"S  c #A64D31",
"D  c #B74F2E",
"F  c #BE6337",
"G  c #DD4B1E",
"H  c #E3471E",
"J  c #E34B1C",
"K  c #E94A1B",
"L  c #E2501F",
"P  c #CA4C25",
"I  c #DE4B21",
"U  c #D24B26",
"Y  c #D15832",
"T  c #E14C21",
"R  c #E55226",
"E  c #EA5325",
"W  c #E9542A",
"Q  c #ED5A2E",
"!  c #E65629",
"~  c #F3592A",
"^  c #E95F32",
"/  c #F45E33",
"(  c #C4633E",
")  c #E5673D",
"_  c #EC6539",
"`  c #F36032",
"'  c #FE6937",
"]  c #F4663C",
"[  c #FC673C",
"{  c #F6693C",
"}  c #FD693B",
"|  c #FB6736",
" . c #F8602F",
".. c #9A5D42",
"X. c #975F48",
"o. c #985C47",
"O. c #816B5D",
"+. c #887956",
"@. c #967F5F",
"#. c #946148",
"$. c #AA664B",
"%. c #B86143",
"&. c #937E63",
"*. c #C65F42",
"=. c #C36242",
"-. c #CD6243",
";. c #D96741",
":. c #C87A5E",
">. c #D97951",
",. c #D47C5C",
"<. c #D17754",
"1. c #DB784F",
"2. c #E36B41",
"3. c #EC6C44",
"4. c #ED6F49",
"5. c #E56A46",
"6. c #F26B41",
"7. c #FE6940",
"8. c #F86742",
"9. c #E4734C",
"0. c #E7744A",
"q. c #E07E55",
"w. c #718C3B",
"e. c #5F854B",
"r. c #67864B",
"t. c #728E45",
"y. c #6F9348",
"u. c #759646",
"i. c #779944",
"p. c #7A9B46",
"a. c #7C9D4A",
"s. c #7B9248",
"d. c #608750",
"f. c #7CA048",
"g. c #97B93E",
"h. c #A7C63C",
"j. c #A9C53C",
"k. c #ABC93E",
"l. c #ADCE37",
"z. c #B4CC3E",
"x. c #AFD13B",
"c. c #AFD135",
"v. c #B5D435",
"b. c #B8D634",
"n. c #B5DB37",
"m. c #BBD935",
"M. c #B4D53B",
"N. c #BAD53C",
"B. c #B4D93B",
"V. c #BBDA3B",
"C. c #C1D62F",
"Z. c #C0D633",
"A. c #809C48",
"S. c #968C5B",
"D. c #BC815F",
"F. c #88A545",
"G. c #95AF42",
"H. c #92B443",
"J. c #98B845",
"K. c #8FB544",
"L. c #A6AC4C",
"P. c #BFAC50",
"I. c #CE865E",
"U. c #CD895C",
"Y. c #DB8658",
"T. c #D28C5E",
"R. c #D7855C",
"E. c #CE9057",
"W. c #DA9D5A",
"Q. c #C2AE4D",
"!. c #C9B64F",
"~. c #CABC51",
"^. c #D4BE51",
"/. c #DBA658",
"(. c #EFB15E",
"). c #CA8460",
"_. c #D48E64",
"`. c #DC8E61",
"'. c #DE9664",
"]. c #DE9864",
"[. c #D69763",
"{. c #E49562",
"}. c #E39C63",
"|. c #E3A165",
" X c #ECA564",
".X c #EBA768",
"XX c #F1A565",
"oX c #F4AC65",
"OX c #F9AB63",
"+X c #F3A669",
"@X c #F5AD68",
"#X c #F9AE69",
"$X c #EDB261",
"%X c #F3B264",
"&X c #FDB06C",
"*X c #EFAD70",
"=X c #F6B273",
"-X c #AAC543",
";X c #A4CA42",
":X c #ACCC40",
">X c #A7C947",
",X c #BCCE42",
"<X c #B7CB45",
"1X c #B6D541",
"2X c #B6D644",
"3X c #B8D542",
"4X c #BBD244",
"5X c #B9DA42",
"6X c #C0CF42",
"7X c #D5C154",
"8X c #C1E140",
/* pixels */
"v.N.1XN.N.v.z.v.M.1X2XB.N.N.5Xn.Z.V.V.V.V.V.V.N.n.5XN.b.B.1X2XB.v.v.M.N.1X<X1Xv.",
"2X2X1X1XM.1X1X1XN.1XM.v.l.:X-Xj.;Xk.h.h.h.k.-Xj.h.:X-Xx.B.B.N.N.1X1XN.N.M.M.2X2X",
"v.v.v.v.M.M.v.1XV.V.V.x.g.p.s.s.u.p.p.u.i.u.u.u.s.s.A.g.B.V.N.N.B.M.v.M.M.x.v.v.",
"v.M.1X2XM.v.n.M.M.B.1X-Xp.x v j v v v v j v v v v v x p.;X1Xv.v.M.n.b.M.2XN.v.v.",
"2XN.N.1XN.m.M.-XH.H.G.F.r.3 & O : : & : & = & : : ; 3 c F.G.H.H.-XM.b.N.3XN.B.4X",
"<Xb.v.V.V.V.k.F.d.c z z b , : O : : , & , : : & O : 6 b x z c e.F.k.V.8XV.b.z.3X",
"N.v.v.h.;X:XJ.t.v # @ $ + 2 1 9 0 0 0 0 0 0 0 w 9 # < + $ @ < v t.H.h.-Xj.c.v.N.",
"5Xx.J.A.u.w.y.x < & * ; ; : 0 d V V V N o.X.X.X.h i O ; ; * & 3 x y.i.u.A.J.l.5X",
"Z.j.f.n t 8 8 % - @ @ < : $   S P P P Y ) ) ) ) %.s @ : < @ < r q v 3 t n a.h.b.",
"H.f.e.7 @ o O : 4 # e p p   B D K J K E ~ } } [ -...g f f e < 2 ; O O o % r.F.H.",
"m m k $ o = , * 2 9 . C A C D U J J J E  .' } } 6.;.=.*.%.#.w 2 X ; O & < k x d.",
"< # < < @ q 0 r 0 . C I J G G J G G G ! ` { { { [ { { [ { =.g e u i 0 1 , @ < < ",
"4 < : < q . V V M S P J K J G J G G G W / 7.7.7.' ' } } } ) %.M o...#.0 < : < - ",
"2 + O < e M P U P U G G G G G J G G G E / [ [ [ ' { } | } { 3.5.) ;.$.d < o @ 5 ",
": + : < p A I K I T G G G G G G G G G R / | { | } [ | { } } } 7.' | =.f @ O @ : ",
"4 1 < # . A I J I J J G G L G I G I T W / 7.7.7.7.[ [ } } [ [ } ' { =.f @ : 2 2 ",
"< < : < a C G J G T T G G I T G G G G W / [ 7.} [ [ [ [ [ [ [ [ } [ =.s < : < < ",
"< < : < a Z G J G I G G G T G G G G I E / [ } 7.[ [ [ [ [ { [ 7.[ { =.s < : < < ",
"< < : @ a C G J G G G G G T I G G G G W / [ } [ [ 7.[ [ [ [ [ [ ' | ( s < : @ < ",
"< < , < a C G J T G G T G G G G I G T T / [ 7.[ } [ [ [ [ [ [ [ [ { =.s 3 : < < ",
"< < < < a C G J G I G T G G G G G G I R / [ 7.[ [ [ [ [ } [ [ [ [ { ( s < : < < ",
"< < , @ a C G G G G G G G G T T T T T W / [ [ [ { [ [ [ 7.[ [ [ } | =.f 3 : < < ",
"< < : @ a C G H G G G G G G R W Q Q Q / ] [ [ [ [ [ [ [ [ { [ [ } { =.s < : @ < ",
"< < : < a C G H G I H G G T R / [ / [ [ [ [ [ [ [ [ 7.[ [ [ [ [ } { ( s < : < < ",
"3 + O 5 a Z G J G J R R E E ^ ) 4.4.4.3.3.4.4.4.3.{ [ [ [ [ [ ' [ | F f 5 O + 2 ",
"# @ : 5 a Z G H G L Q `  .` _ 9.>.>.>.>.>.>.>.>.9.6.| [ } } { [ } | ( s 6 + @ < ",
"< @ O < a Z G L T ! _ { { 6.4.q.I.U.).T.I.T.U.I.q.9.6.[ { { } [ { } ( s 5 : @ 4 ",
"4 < : @ a Y ~ ~ ~ _ ) 9.9.9.q.`.'.].].].'.'.].].'.q.9.9.9.0.{ [ ' [ -.s < : < 5 ",
": 2 : @ s F ] | ' 3.1.,.,.,.R.}. X+X+XXXXXoXXXXX}.Y.,.,.I.>.3.{ } { =.s @ < 4 : ",
"O O O # h #.=.;.3.0.Y.`._._.}. X#X%XOX@X@X@X@X@X X}.`._._.Y.0.3.;.=.X.h # o O : ",
"@ @ @ < y e #.$.<.Y.{.}.|.|. XoX@X%X%XoXoXoXoX@XoX X|.|.}.{.Y.<.$.g e q < @ 2 @ ",
"v 8 5 5 2 , v h D.T.XXOXoXoX@X@XoXoXXXXX XoXoXoX@X@XOXOXOXXX[.D.O.y O , < 3 v v ",
"i.w.z 3 > & u +.T..XOXOX#X@XoXoXoX X{.'.'.{.}.@XOXoX@X#XoXOX.XT.+.t & > 3 z w.i.",
">XJ.y.v & o y +.[.*X@X(.@X@XoX@X X{._.I.)._.}. X@XoX@X@XXXoX*X[.+.y : & 7 t.J.>X",
"8Xk.p.j o & y &.|.=X#XXXoXoXoX%X X'.U.:.:.).{..X#X@XoXoXoX#X=X|.&.y o o j i.k.8X",
"m.j.u.% & & y &.}.@X&XOXoX@X#XOX+X'.I.:.:.R.{.+XOX@XoX@XoX#X=X}.&.u & o j u.j.m.",
"V.k.f.l 8 7 n S./.(.(.(.$X$X$X$X XW.E.E.U.E.W.$X$X$X$X$X$X%X$X/.S.n 7 % l f.k.V.",
"N.M.J.a.u.y.a.L.~.7X7X^.^.^.7X^.^.!.P.P.P.Q.Q.^.7X7X^.^.^.7X7X~.L.a.y.u.f.J.z.5X",
"M.v.k.-Xj.;X;Xz.4X6X,X6X,X<X4X6X,X4X<X<X<X<X,X,X6X4X,X4XZ.,X6X4Xz.;X;Xj.>X:Xv.v.",
"3Xb.m.m.C.V.B.V.B.B.v.N.B.M.B.B.v.n.n.n.n.n.n.n.M.B.v.B.N.v.v.B.Z.1XV.C.m.N.b.2X"
};
