/* XPM */
static char *_7419524cb1845cdd9c168bacabf89440xmhk5VU4ZlZb5Yz[] = {
/* columns rows colors chars-per-pixel */
"40 40 164 2 ",
"   c #334E48",
".  c #2D514E",
"X  c #33524D",
"o  c #275150",
"O  c #2C5350",
"+  c #345552",
"@  c #3C5752",
"#  c #345856",
"$  c #3E5852",
"%  c #325D5D",
"&  c #315F61",
"*  c #2E6368",
"=  c #336264",
"-  c #33686C",
";  c #2A6C76",
":  c #2A6D78",
">  c #326C73",
",  c #2B727E",
"<  c #32737D",
"1  c #49594D",
"2  c #445A53",
"3  c #495D53",
"4  c #565F54",
"5  c #5C6155",
"6  c #656356",
"7  c #6B6656",
"8  c #776857",
"9  c #7C6A57",
"0  c #7F6E5A",
"q  c #826C58",
"w  c #8A6E58",
"e  c #8D7159",
"r  c #8C7253",
"t  c #927E5B",
"y  c #95715A",
"u  c #A9775B",
"i  c #B6D53C",
"p  c #94815C",
"a  c #9B815C",
"s  c #B0815D",
"d  c #BC825F",
"f  c #BC876C",
"g  c #BA8A6F",
"h  c #B78A72",
"j  c #B7977D",
"k  c #B6987F",
"l  c #DC8B5B",
"z  c #D2895C",
"x  c #E4945E",
"c  c #EE9E5F",
"v  c #E9945A",
"b  c #CE8761",
"n  c #CC8863",
"m  c #D58B60",
"M  c #C9926D",
"N  c #D49161",
"B  c #DE9562",
"V  c #DB9E63",
"C  c #D69C6D",
"Z  c #C69873",
"A  c #E19762",
"S  c #E29962",
"D  c #EC9E61",
"F  c #E09E68",
"G  c #DFA464",
"H  c #EEA464",
"J  c #F1A765",
"K  c #F4AC66",
"L  c #F9AF67",
"P  c #FCB167",
"I  c #287180",
"U  c #277281",
"Y  c #327581",
"T  c #3E7982",
"R  c #317D8C",
"E  c #237D93",
"W  c #29859B",
"Q  c #1E89A6",
"!  c #1B8EAE",
"~  c #1E87A3",
"^  c #1B8FB0",
"/  c #1B90B1",
"(  c #1896BB",
")  c #2F8EA5",
"_  c #308DA3",
"`  c #3090A7",
"'  c #2F9CBA",
"]  c #259CBE",
"[  c #648689",
"{  c #5FA9BD",
"}  c #7AA2AA",
"|  c #68ADBE",
" . c #159BC4",
".. c #149EC9",
"X. c #1CA4CD",
"o. c #0FA6D6",
"O. c #0FA9DB",
"+. c #11A5D4",
"@. c #13A8D7",
"#. c #10A7D8",
"$. c #11A9D9",
"%. c #19AEDE",
"&. c #2EA4C6",
"*. c #2EA7CA",
"=. c #34A6C6",
"-. c #27AFD9",
";. c #3FAFD0",
":. c #2CB0D9",
">. c #26B0DA",
",. c #35B1D8",
"<. c #15AFE1",
"1. c #16B1E2",
"2. c #19B1E1",
"3. c #1BB7EA",
"4. c #1BB9EC",
"5. c #1BBDF2",
"6. c #2DB7E1",
"7. c #2DB8E3",
"8. c #2DBBE7",
"9. c #24BCEC",
"0. c #25BEEF",
"q. c #23BBEC",
"w. c #2CBDEA",
"e. c #3EBCE4",
"r. c #3ABFE9",
"t. c #32B7E1",
"y. c #24BFF1",
"u. c #56AFC8",
"i. c #56B1CB",
"p. c #5AB1CA",
"a. c #43B1D2",
"s. c #4AB8D9",
"d. c #62ACC1",
"f. c #40BCE2",
"g. c #1CC0F5",
"h. c #2DC0EF",
"j. c #37C0EB",
"k. c #2CC2F2",
"l. c #2CC3F4",
"z. c #2CC5F6",
"x. c #2CC5F7",
"c. c #2DC6F7",
"v. c #2CC6F7",
"b. c #2DC4F4",
"n. c #2CC4F5",
"m. c #27C7FB",
"M. c #26C7FB",
"N. c #2AC7F9",
"B. c #2CC7F9",
"V. c #2CC7FA",
"C. c #29C6F9",
"Z. c #25CAFE",
"A. c #2CC8FB",
"S. c #2CC9FC",
"D. c #2CCBFE",
"F. c #2BCAFD",
"G. c #23C3F6",
"H. c #31C4F2",
"J. c #919189",
"K. c #9C948A",
"L. c #919A96",
"P. c #9A9E94",
"I. c #A29587",
"U. c #81A7AB",
/* pixels */
"i i i i i i i i i i i i i i i i i i i i i i i i i i i i i i i i i i i i i i i i ",
"i i i i i i i i i i i i i i i i i i i i i i i i i i i i i i i i i i i i i i i i ",
"i i i i i i i i i i i i i w q 9 q q q q q q q q q 9 w i i i i i i i i i i i i i ",
"i i i i i i i i i i i i i 4 2 2 2 2 2 3 2 2 2 2 2 2 4 w i i i i i i i i i i i i ",
"i i i i i i i i i i i i 7 $ O .   O . .   O O X . O @ 6 i i i i i i i i i i i i ",
"i i i i i i i y 7 5 6 4 3 + . . X X +   X X X     O @ 3 4 6 4 7 i i i i i i i i ",
"i i i i i i i 9 3 . + + + + # % & & & & & & = = & # + + + + + 2 9 i i i i i i i ",
"i i i w 9 q 8 4 @ . . X   X & , E E E W _ ) ` _ R =       . O @ 4 8 q 9 w i i i ",
"i i i 4 2 2 2 @ + + + + X # ; ~  ...X.X.>.7.h.:.' < # X + # + + $ 2 2 $ 4 r i i ",
"i i 7 $ O O . X X % * ; ; : E ( o.o.#.1.k.A.D.S.:._ Y < Y > % X X X . . $ 6 e i ",
"i 4 3 + X X X   X * E ! ! ^ / +.#.o.#.%.G.z.A.v.w.:.=.*.=._ > X   X . X X 3 5 6 ",
"@ + + + # % & % = I / +.o.+.+.+.o.o.+.%.9.n.v.x.b.b.k.B.k.*.R = = = & + + + @ + ",
"+ . + + = I E E E Q  .#.#.#.#.@.+.+.+.%.9.x.v.v.x.S.S.D.A.7.' _ ` _ R = # X # . ",
"+ + X + ; ~  ... ...+.+.@.+.+.+.+.+.+.%.9.b.v.b.b.x.x.x.x.k.w.7.8.7.' < # X X + ",
"+ + X + ; ^ o.O.O.#.+.+.+.+.+.+.+.+.+.%.9.x.v.z.x.x.x.b.x.x.V.S.D.A.*.Y + X + X ",
"+ X X + : ^ +.O.o.+.+.+.+.+.+.+.+.+.+.%.9.v.v.z.z.b.x.x.x.x.V.V.D.v.*.Y +   + + ",
"+ + X + ; ! +.#.+.@.+.+.+.+.+.+.+.+.+.%.9.b.v.b.v.x.z.z.z.z.z.z.S.b.&.Y + X @ + ",
"+ X @ + ; ! +.#.+.+.+.+.+.+.+.+.+.+.+.%.9.x.v.v.v.b.z.z.z.z.z.z.S.b.&.Y + X X + ",
"+ + X + ; ! +.#.+.+.+.+.+.+.+.+.+.+.+.%.9.x.v.x.x.b.v.z.z.z.z.z.A.b.*.Y + X + + ",
"+ + X # : ! +.#.+.+.+.+.+.+.+.+.+.+.+.%.9.b.v.x.b.x.x.b.z.z.z.z.m.b.&.Y + X + + ",
"X + X + ; ! +.#.+.+.+.+.+.+.+.+...o.o.%.9.n.v.x.z.z.z.z.z.z.z.z.A.b.&.< @   + + ",
"+ + X # ; ! +.@.+.+.+.+.+.+.+.@.@.o.#.1.0.n.v.x.z.z.z.z.z.z.z.z.F.n.*.< + X + + ",
"+ X @ + ; ! +.#.+.+.+.+.+.o.#.1.3.3.3.4.G.M.M.m.M.z.z.z.z.z.z.z.A.b.=.< # X + + ",
"+ + X + ; ! +.#.+.+.+.+.+.@.%.8.k.k.k.k.b.b.b.b.b.v.z.z.z.z.z.z.F.b.*.< + X + X ",
"+ + X @ : ! +.o.+.#.%.1.1.1.:.a.p.p.p.p.p.u.p.p.s.j.z.M.m.z.z.m.A.x.=.Y # X + + ",
"+ + X # ; ! +.o.o.$.3.5.g.q.a.} K.I.K.K.K.K.K.K.} s.z.Z.m.z.v.v.m.b.&.Y X X + + ",
"+ X X + : / +.$.@.>.t.j.j.f.| I.n z b b z n z n I.| f.j.f.j.H.x.A.b.*.Y + X + + ",
"+ + X @ , ] 4.5.3.,.| } } } P.Z x v x x x v v S Z P.} } } d.f.m.Z.S.*.Y + X + + ",
"+ + X + Y &.w.M.H.p.L.h f g M F J J J J J J K J V M g f h L.i.H.Z.b.&.Y + X + + ",
"O + X + > _ =.;.d.U.j l l l A H J L K K L K K K H x l l l k U.i.;.=._ > + X . + ",
"O + + + = > T [ K.I.C D c D H J K K L K K K L K J H H c D C k J.[ T ; % + + + O ",
"3 2 $ + + O 2 0 u B H K K K K K K K J J J J J J K K K K J H B d q 2 O + + $ 2 2 ",
"q 8 4 @ . . 1 r N c J K P K K K J H S B B S H J K K K L K K D z r 1 X . @ 5 8 q ",
"i u 8 3 . O 3 p V K L K K K K K J S i i i i V J K K K K K L K V t 3 O . 2 9 u i ",
"i i q 2 o o 3 p G P P K K K K P J B i i i i B J L K K K K L L G p 3 O o 2 9 i i ",
"i i q 2 o o 3 p G P K K L L K K H B i i i i B J L L K K K L L G p 2 o o 2 9 i i ",
"i i w 4 @ @ 5 a G K J J J J J J H B i i i i B H K K H J J K J G a 5 $ 2 5 w i i ",
"i i u w 9 q y u N x V B V B B B B m i i i i z N B B B B B B V N s e 9 9 w u i i ",
"i i i i i i i i i i i i i i i i i i i i i i i i i i i i i i i i i i i i i i i i ",
"i i i i i i i i i i i i i i i i i i i i i i i i i i i i i i i i i i i i i i i i "
};
