/* XPM */
static char *result[] = {
/* columns rows colors chars-per-pixel */
"40 40 158 2 ",
"   c #334E48",
".  c #2D514E",
"X  c #33524D",
"o  c #275150",
"O  c #2C5350",
"+  c #345552",
"@  c #3C5752",
"#  c #345856",
"$  c #3E5852",
"%  c #325D5D",
"&  c #315F61",
"*  c #2E656A",
"=  c #2F6164",
"-  c #336264",
";  c #33686C",
":  c #2A6C76",
">  c #2A6D78",
",  c #326C73",
"<  c #2B727E",
"1  c #32737D",
"2  c #49594D",
"3  c #445A53",
"4  c #495D53",
"5  c #565F54",
"6  c #5C6155",
"7  c #656356",
"8  c #6B6656",
"9  c #776857",
"0  c #7C6A57",
"q  c #7F6E5A",
"w  c #826C58",
"e  c #8A6E58",
"r  c #8D7159",
"t  c #8C7253",
"y  c #927059",
"u  c #98725A",
"i  c #927E5B",
"p  c #A3755B",
"a  c #A9775B",
"s  c #B77B5C",
"d  c #BA7C5D",
"f  c #C27E5D",
"g  c #C97F5E",
"h  c #94815C",
"j  c #9B815C",
"k  c #B0815D",
"l  c #BC825F",
"z  c #BC876C",
"x  c #BA8A6F",
"c  c #B78A72",
"v  c #B7977D",
"b  c #B6987F",
"n  c #C6805E",
"m  c #CC815E",
"M  c #D2845F",
"N  c #D18D5B",
"B  c #DC8B5B",
"V  c #E4945E",
"C  c #E9945A",
"Z  c #EE9E5F",
"A  c #CE8761",
"S  c #CC8863",
"D  c #D58B60",
"F  c #C9926D",
"G  c #D49161",
"H  c #DE9562",
"J  c #DB9E63",
"K  c #D69C6D",
"L  c #C69873",
"P  c #E19762",
"I  c #E29962",
"U  c #EC9E61",
"Y  c #E09E68",
"T  c #DFA464",
"R  c #EEA464",
"E  c #F1A765",
"W  c #F4AC66",
"Q  c #F9AF67",
"!  c #FCB167",
"~  c #287180",
"^  c #277281",
"/  c #327581",
"(  c #3E7982",
")  c #317D8C",
"_  c #237D93",
"`  c #29859B",
"'  c #1E89A6",
"]  c #1B8EAE",
"[  c #1E87A3",
"{  c #1B8FB0",
"}  c #1B90B1",
"|  c #1896BB",
" . c #2F8EA5",
".. c #308DA3",
"X. c #3090A7",
"o. c #2F9CBA",
"O. c #259CBE",
"+. c #648689",
"@. c #5FA9BD",
"#. c #7AA2AA",
"$. c #68ADBE",
"%. c #159BC4",
"&. c #149EC9",
"*. c #1CA4CD",
"=. c #0FA6D6",
"-. c #0FA9DB",
";. c #11A5D4",
":. c #13A8D7",
">. c #10A7D8",
",. c #11A9D9",
"<. c #19AEDE",
"1. c #2EA4C6",
"2. c #2EA7CA",
"3. c #34A6C6",
"4. c #20AFDC",
"5. c #2EAFD5",
"6. c #3FAFD0",
"7. c #2CB0D9",
"8. c #26B0DA",
"9. c #35B1D8",
"0. c #15AFE1",
"q. c #16B1E2",
"w. c #19B1E1",
"e. c #1BB7EA",
"r. c #1BB9EC",
"t. c #1BBDF2",
"y. c #2DB7E1",
"u. c #2DB9E4",
"i. c #24BCEC",
"p. c #2CBDEA",
"a. c #3EBCE4",
"s. c #3ABFE9",
"d. c #32B7E1",
"f. c #24BFF1",
"g. c #56AFC8",
"h. c #56B1CB",
"j. c #5AB1CA",
"k. c #43B1D2",
"l. c #4BB7D7",
"z. c #49B8DA",
"x. c #62ACC1",
"c. c #40BCE2",
"v. c #1CC0F5",
"b. c #2DC0EF",
"n. c #37C0EB",
"m. c #2CC5F6",
"M. c #26C7FB",
"N. c #2BC7F9",
"B. c #25CAFE",
"V. c #2CC9FC",
"C. c #23C3F6",
"Z. c #31C4F2",
"A. c #919189",
"S. c #9C948A",
"D. c #919A96",
"F. c #9A9E94",
"G. c #A29587",
"H. c #81A7AB",
/* pixels */
"m m m m m m m m m m m m m M M M M M M g A M g M M g g M g g m m m m m m m m m g ",
"m m g m n m m g m g m g f d s s d s d d d d f d d d s f g M g m m m g m g m m m ",
"m g m m m m m m M M M g a e 0 w w w w w w w w w w w e a g M M M m m m m m m m m ",
"m m m m g m m m g m m d e 5 3 3 3 3 3 4 3 3 3 3 3 3 5 e d m m g m g m g m m g m ",
"g m m m m M g s p p p y 8 @ . .   + O X + . X . . . @ 7 y p p p s m m M m m m m ",
"m m m M M M f u 8 6 7 5 4 + . . X X X +     .     . @ 4 5 7 6 8 u f M M m m m m ",
"m m f d d d a 9 3 + + X + + # % & & & & - = - - & % + + + + + 3 9 a d d d n m m ",
"M g a e w w 9 5 + . X X X X & < _ _ _ _ .. . . .) & X     . X + 6 9 w 0 e a m M ",
"m s e 5 3 3 3 + + + + + X + : ' %.&.%.*.8.u.p.9.o.1 # + + + + + @ 3 3 3 5 w d m ",
"p u 8 @ O O . X X % * : : : _ | =.-.>.w.C.V.V.V.5.../ 1 / , % X X X . . @ 8 y p ",
"7 6 4 + X X X   X * _ ] ] ] | *.=.=.;.w.i.V.V.V.p.5.3.1.3..., X   X . X X 4 6 7 ",
"+ + + X # % & % - < ] ;.=.=.=.;.;.;.;.<.i.m.m.N.m.m.m.N.m.2.) - - - % # + X + @ ",
"+ . + + - < _ _ _ ' %.>.>.>.>.:.;.;.;.<.i.m.V.m.N.V.V.V.N.y.o.......) - + X X + ",
"+ + X + : [ %.&.%.&.;.;.>.;.;.;.;.;.;.<.i.m.Z.m.m.Z.V.m.m.m.p.y.p.y.o.1 # X + + ",
"+ + X + : { =.-.>.>.;.;.;.;.;.;.;.;.;.<.i.m.N.m.m.m.m.m.m.m.N.V.V.V.2./ + X + + ",
"+ + X + > { ;.-.>.;.;.;.;.;.;.;.;.;.;.<.i.N.Z.m.m.m.m.N.m.m.m.N.V.V.1./ + X X + ",
"+ + + # : ] ;.>.;.;.;.;.;.;.;.;.;.;.;.<.i.m.N.m.m.m.m.m.m.m.m.N.V.m.3./ + X + + ",
"+ + X + : ] ;.>.;.;.:.;.;.;.;.;.;.=.;.<.i.m.Z.N.N.m.m.N.m.m.m.m.N.m.1.1 + X + + ",
"+ + X + : { ;.>.;.;.;.;.;.;.;.;.;.=.;.<.i.m.N.m.m.m.m.m.V.m.m.m.V.m.1./ + X + X ",
"+ + X + : { ;.>.;.;.;.;.;.;.;.;.;.;.;.<.i.N.Z.m.m.m.m.m.m.m.m.m.V.m.1./ + X + + ",
"+ + X + : ] ;.>.;.;.:.;.;.;.;.;.;.&.;.<.i.m.Z.N.m.m.m.m.m.m.m.m.V.m.1.1 + X + + ",
"+ X X + : ] ;.>.;.;.;.;.;.;.;.:.>.>.:.w.i.m.N.N.m.m.m.m.m.m.m.m.V.m.1.1 @   + + ",
"+ + @ + : ] ;.>.;.;.;.;.;.;.:.q.r.e.r.r.C.M.M.M.N.N.m.m.m.m.m.m.V.m.3./ + X + + ",
"X + X + : ] ;.>.;.;.;.;.;.;.<.p.m.p.f.m.Z.m.Z.m.m.m.V.m.m.m.m.m.V.m.1.1 + X + + ",
"+ + X + , ] ;.;.=.;.<.q.q.q.7.k.j.j.j.j.j.g.j.g.l.n.N.N.N.N.m.m.V.m.1./ + X + + ",
"+ + X + > ] ;.;.=.<.e.r.v.i.k.#.S.G.S.S.S.S.G.S.#.z.m.B.M.M.N.m.V.m.1./ + X + + ",
"+ + X + > } :.,.:.4.y.a.s.c.x.G.S M S S m A N S G.$.c.n.a.n.Z.m.V.m.1./ + X X + ",
"+ + @ X / O.e.t.r.9.@.#.#.#.F.L C C V V C C V V L F.#.#.#.x.a.M.B.V.1./ + X + + ",
"+ + X # / 1.i.M.b.h.D.c z c F T R E E E E E E E T F x z c D.h.Z.B.m.1.1 # X + + ",
"X + X + ,  .3.k.j.#.b B B B H R W Q W Q Q W Q W R V B B B v H.h.6.3. ., +   + + ",
"O + X + % : ( +.A.b K U Z U R E W W Q W W Q W W E R Z Z V K v A.+.( : % + + X O ",
"3 3 @ + + # 3 0 l H R W W W W W W W E E E E E W W W W W W R H z w 3 + + + + 3 3 ",
"w 9 5 3 . . 2 t N Z E Q W W W Q W R H H H H R E W W W Q W E Z M t 2 . . @ 5 0 w ",
"d a 0 3 O O 4 h J W W W W W Q W E I D S S N I E W W W W W Q Q J i 4 O . 3 0 a f ",
"D d w 3 . o 4 h T ! Q W Q W Q W E H m g g m P E Q Q W W W Q Q T h 4 O o 3 w f M ",
"D d 0 3 o o 4 h T ! Q W W W W Q E I m g g M P E Q Q W W W Q ! T h 4 o o 3 w d M ",
"g f e 5 3 @ 6 j J W E E E R E E R H m m m m H R R R E E E E W J j 6 @ 3 5 e d M ",
"g g a e w 0 y k G I H I J H H H H D m m m m D H H J H H H H H G k r w 0 e p f m ",
"g g g d s d f g m D m M M S N m m m m m m m m m N m m m A M M N n l s s d f g g ",
"g g M M g M g g m n g g g g m m g m n m m m m g S g m m m n m n m m M M M M m m "
};
