/* XPM */
static char *_8ad7eac1bae439881260adf1d0d1220kMqAyqOG7FoaNAAc[] = {
/* columns rows colors chars-per-pixel */
"40 40 140 2 ",
"   c #7A683E",
".  c #3D435D",
"X  c #3C4561",
"o  c #3F4963",
"O  c #374263",
"+  c #40465C",
"@  c #444B5F",
"#  c #4D575C",
"$  c #4F585C",
"%  c #505A5B",
"&  c #5A5958",
"*  c #5A5652",
"=  c #605C55",
"-  c #5C6857",
";  c #5B6758",
":  c #736546",
">  c #77694B",
",  c #786A4C",
"<  c #70644B",
"1  c #616E56",
"2  c #6B6351",
"3  c #647255",
"4  c #6A7953",
"5  c #404760",
"6  c #434A60",
"7  c #484F64",
"8  c #4E5469",
"9  c #50576A",
"0  c #565C6F",
"q  c #585E71",
"w  c #5D647A",
"e  c #997B37",
"r  c #84724A",
"t  c #7C8E4E",
"y  c #7E914D",
"u  c #BC8D1F",
"i  c #9F823E",
"p  c #B48821",
"a  c #A4853E",
"s  c #A9893E",
"d  c #DFA00A",
"f  c #E3A106",
"g  c #E4A309",
"h  c #E8A403",
"j  c #F0AD0F",
"k  c #FFBA0E",
"l  c #EEAE14",
"z  c #F3B115",
"x  c #F6B418",
"c  c #F8B619",
"v  c #FEBC1D",
"b  c #FDB916",
"n  c #C6982D",
"m  c #CC9E31",
"M  c #CFA030",
"N  c #DAA937",
"B  c #DCAD3F",
"V  c #DAA62A",
"C  c #FEBE21",
"Z  c #F4B92F",
"A  c #F9BB28",
"S  c #F3B931",
"D  c #AFCD3E",
"F  c #B0CE3E",
"G  c #B6D53C",
"H  c #B8D73B",
"J  c #B9D93B",
"K  c #FFC11D",
"L  c #FCC032",
"P  c #82974C",
"I  c #869B4B",
"U  c #A18440",
"Y  c #BD9D57",
"T  c #92A947",
"R  c #9DB644",
"E  c #A2BD42",
"W  c #A8997D",
"Q  c #B19C72",
"!  c #CBA447",
"~  c #DFB24A",
"^  c #D3AF5C",
"/  c #E4B444",
"(  c #CDAD63",
")  c #CFB067",
"_  c #E1BF6E",
"`  c #A7C341",
"'  c #A9C540",
"]  c #F2C04B",
"[  c #EFC050",
"{  c #E1C070",
"}  c #696F86",
"|  c #656C83",
" . c #6D7384",
".. c #6C7289",
"X. c #717786",
"o. c #717888",
"O. c #7A8097",
"+. c #7D8299",
"@. c #9C9385",
"#. c #868793",
"$. c #898F9E",
"%. c #8C919E",
"&. c #A29E9F",
"*. c #B2A285",
"=. c #BCAC8C",
"-. c #ACA291",
";. c #8F98AA",
":. c #9E9DA4",
">. c #9599AF",
",. c #8B95B9",
"<. c #9097B5",
"1. c #959AB1",
"2. c #9A9EB2",
"3. c #979EB9",
"4. c #989FBB",
"5. c #9FA3B9",
"6. c #A2A7BB",
"7. c #A3A8BB",
"8. c #D3BD87",
"9. c #C2BEB8",
"0. c #D9CAA2",
"q. c #9EA5C0",
"w. c #B3B6C8",
"e. c #B4B8C9",
"r. c #B9BECA",
"t. c #B5BCD2",
"y. c #B9BED1",
"u. c #C7C9D6",
"i. c #C8CED6",
"p. c #CBD0D7",
"a. c #D7D7D9",
"s. c #CBD0E1",
"d. c #D9DDE5",
"f. c #DDE1E7",
"g. c #DFE7F2",
"h. c #E1E4EA",
"j. c #E4E9EE",
"k. c #F2F3F6",
"l. c #F5F6F8",
"z. c #FFFFFF",
/* pixels */
"G G G G G G G G G G G G G G G G G G G G G G G G G G G G G G G G G H G G G G G G ",
"G G G G G G G G G G G G H G G G G G G G G G G G G G G G G G G G G G G G G G G G ",
"G G G G G G G G G G G G G G G G G H G G G G G G G G G G G G G G G G G G G G G G ",
"G G G G G G G G G G G G G G G G G H H H J J J G G G G G G G G G G G G G G G G G ",
"G G G G G G G G G G G G G G G G H ' ` D ` ` D G G G G G G G G G G G G G G G G G ",
"G G G G G G G G G G G G G G G G H I $ % $ # P J G G G G G G G G G G G G G G G G ",
"G G G G G G G G G G G G G G H H y $ o . . . % y J H G G G G G G G G G G G H G G ",
"G G G H G G G G G G G G G H D P $ . 8 ....8 . $ I ' J G G G G G G G G G G G G G ",
"G G G G G G G G G G G G G H ` $ . 8 ..>.1...8 5 $ ' J G G G G G G G G G G G G G ",
"G G G G G G G G G G G G G H ' $ +  .3.6.6.3. .. % ' J G G G G G G G G G G G G G ",
"G G G G G G G G G G G G G G ' % . ..w.k.k.w.} . % ` J G G G G G G G G G G H G G ",
"G H J E 3 3 1 1 1 3 3 - T ` 3 @ . | e.z.z.e.| . @ 3 E T - 3 3 3 3 3 3 3 R J G G ",
"G J R 4 + . . . . . . . - 4 6 6 w 5.d.z.z.d.2.w 6 + 4 1 X . . . . . . + 4 R J G ",
"J E 4 X 7  .X.0 8  .X.9 + + @ @ +.p.z.z.z.z.a.O.6 @ + + 8  . .8 w o.w 7 X 4 ` J ",
"' 3 + . 0 i.h.$.w d.d. .. @ @ @ o.u.l.k.k.l.u.O.6 6 @ .  .d.d.} $.h.i.0 . X 3 ' ",
"% 7 6 + 0 i.j.;.X.f.f.X.+ @ @ @ #.6.7.6.7.7.5.+.7 @ @ + X.f.d. .%.j.p.q + 6 @ % ",
"+ 6   u ! a.g.8.) f.f.) n n u p @.t.d.d.d.h.y.@.p p n n ) f.f.^ 8.g.a.! p , o + ",
"6 o e k L 9.t.{ ] r.r.[ K b f f *.s.z.z.z.z.s.W h h b K [ r.r.[ _ t.0.S k e o 6 ",
"6 X U K S &.,.( / 1.<.~ v x f f W t.h.h.f.h.y.@.d f x v ~ >.1./ ( ,.:.S K U o 6 ",
"+ o a K S -.:.^ / &.-.B K x f d *.4.2.1.2.1.3.*.f f x v / &.&./ ^ :.-.Z K U o + ",
"6 X a K C S S A A Z S A v c f g 0.t.>.1.1.>.t.0.g f c v A S S C A S Z C K i o 6 ",
"@ o U K C v v v K v K v C x f g =.q.1.1.1.1.4.8.g f x C v v K v v v v C K a o + ",
"6 X U K v C C C C C v K C x f d W <.1.1.1.1.<.@.d f x C C C C C C C C C K U o @ ",
"6 X U K C c x x x x x x v x f f =.q.1.1.>.1.5.=.f f x v x x x x x x c C K U X @ ",
"@ o e K c g g g g g g g z c f f 0.e.>.1.1.;.t.0.g f x l f g g g g g g v K i X @ ",
"@ X e l c g x K c C C g l x d d *.3.>.1.1.>.3.*.d d x l g C v v v z g v j e X @ ",
"o + * : , > V K K K K i < , : < #.Q Y >.1.Y Q #.: : > < e K K K K V : , : * + 5 ",
"t % X X X 5 r U U i i & O X X o 5._ N 2.2.N _ 5.X X X O & U U U a r X X O O % t ",
"H t 3 3 - @ X X X X X o % ; @ 6 ;.{ ~ O.#.~ _ ;.6 + - % 5 X X X X X @ 1 3 1 y J ",
"G G G G ' - $ $ % $ $ $ I R % @ O s M @ @ M a . @ $ R I 8 % $ $ % $ ; ' G G G G ",
"G G G H G ' ' ' ' ' ` ` G G R % . a m @ @ M s X % R G D E D D D ' ` ' G G G G G ",
"G G G G H H H J J H H H G H ' $ . = 2 @ @ 2 & o $ ' H G G G G G J J J G G G G G ",
"G G G G G G G G G G G H G H ' I 9 . X X . X X $ P D G G G G G G H G G G G G G H ",
"G G G G G G G G G G G G G G H H P 4 3 3 3 3 - t J G G G G G G G G G G G G G G G ",
"G G G G G G G H G G G G G G G G J J J J G G F G G G G G G G G G G G G G G G G G ",
"G G G G G G G G G G G G G G G G ' J J ' G G G G G G G G G G G G G G G G G G G G ",
"G G G G G G G G G G G G G G H G J ' J J J J H G G G H G G G G G G G G G G H G G ",
"G G G G G G G G G G G G G G G G J J J J H J ' G G G G G G G G G G G G G G G G G ",
"G G G G G G G G G G G G G G G G ' J J ' ' J G G G G G G G G G G G G G G G G G G ",
"G G G G G G G G G G G G G G G G J J J J J J G G G G G G G G G G G G G G G G G G "
};
