/* XPM */
static char *_a5d2acd42ef4ca7bd5d646e9b07ad3dRVZNdtEPrEaf0DAQ[] = {
/* columns rows colors chars-per-pixel */
"40 40 254 2 ",
"   c #B6D53C",
".  c #B7D63C",
"X  c #B8D83B",
"o  c #AFCD3E",
"O  c #A8C440",
"+  c #A9C540",
"@  c #B8D73B",
"#  c #82974C",
"$  c #4D575C",
"%  c #505A5B",
"&  c #7E914D",
"*  c #50595B",
"=  c #3F455F",
"-  c #3E455D",
";  c #3C425D",
":  c #4D5469",
">  c #6C7288",
",  c #6C7289",
"<  c #959AB1",
"1  c #6B7187",
"2  c #9A9FB5",
"3  c #A1A6BA",
"4  c #B6D43C",
"5  c #B4D33C",
"6  c #B5D43C",
"7  c #A7C340",
"8  c #696F86",
"9  c #B3B6C8",
"0  c #F2F2F5",
"q  c #BBDB3B",
"w  c #A1BB42",
"e  c #657455",
"r  c #647255",
"t  c #626F56",
"y  c #92A947",
"u  c #A4BF41",
"i  c #474E5E",
"p  c #3E455B",
"a  c #656C83",
"s  c #B4B8C9",
"d  c white",
"f  c #9EB743",
"g  c #697854",
"h  c #3F465F",
"j  c #3A405C",
"k  c #39405B",
"l  c #3D435E",
"z  c #3E445F",
"x  c #3C415F",
"c  c #606D56",
"v  c #6C7C52",
"b  c #404760",
"n  c #434A60",
"m  c #5D647A",
"M  c #9B9FB0",
"N  c #DCDEE6",
"B  c #FEFEFF",
"V  c #A2BD42",
"C  c #3D4360",
"Z  c #484F64",
"A  c #6A7182",
"S  c #717888",
"D  c #585E71",
"F  c #4F5569",
"G  c #6F7586",
"H  c #50576A",
"J  c #40465E",
"K  c #434A5F",
"L  c #444B60",
"P  c #7C8199",
"I  c #D1D3DE",
"U  c #A7C341",
"Y  c #637155",
"T  c #40475C",
"R  c #545B6E",
"E  c #C8CED6",
"W  c #E1E6EC",
"Q  c #898F9D",
"!  c #6A7082",
"~  c #D8DDE4",
"^  c #6E7586",
"/  c #3D455A",
"(  c #7A8097",
")  c #C7C9D6",
"_  c #F5F6F8",
"`  c #F2F3F6",
"'  c #474F5E",
"]  c #41485D",
"[  c #565D70",
"{  c #CBD0D8",
"}  c #E4E9EE",
"|  c #8B919F",
" . c #6C7283",
".. c #DBE0E6",
"X. c #707787",
"o. c #3F465C",
"O. c #454C61",
"+. c #7D8399",
"@. c #9FA3B9",
"#. c #A3A8BB",
"$. c #A3A7BB",
"%. c #414760",
"&. c #41485E",
"*. c #525972",
"=. c #717791",
"-. c #989DAF",
";. c #D5DAE1",
":. c #E2E7EC",
">. c #B4B9C6",
",. c #A4A9B8",
"<. c #DDE2E8",
"1. c #A6ABBA",
"2. c #8E93A6",
"3. c #84899F",
"4. c #676D89",
"5. c #858BA4",
"6. c #BBBECD",
"7. c #E0E2E9",
"8. c #DEE0E7",
"9. c #6A7087",
"0. c #9FA4BB",
"q. c #B3B7C9",
"w. c #B8BDCC",
"e. c #B9BECC",
"r. c #B5BACA",
"t. c #B4B9CA",
"y. c #B5B8CA",
"u. c #A1A6BC",
"i. c #777D9D",
"p. c #777D9C",
"a. c #898EA8",
"s. c #CFD1DB",
"d. c #7A7F93",
"f. c #ACB0C2",
"g. c #969BB2",
"h. c #9196AE",
"j. c #A2A6BB",
"k. c #A8ACBF",
"l. c #9398AF",
"z. c #A7ABBF",
"x. c #B2B6C7",
"c. c #9EA3B9",
"v. c #767C9B",
"b. c #757B9A",
"n. c #888EA8",
"m. c #E3E4EA",
"M. c #E0E2E8",
"N. c #797F92",
"B. c #B3B7C8",
"V. c #ACB0C3",
"C. c #9B9FB5",
"Z. c #979CB2",
"A. c #A4A9BD",
"S. c #A9ADC0",
"D. c #989DB4",
"F. c #A8ADC0",
"G. c #767C9A",
"H. c #9297AF",
"J. c #9BA0B6",
"K. c #B2B6C8",
"L. c #AFB3C5",
"P. c #AEB2C4",
"I. c #B1B5C7",
"U. c #767B9A",
"Y. c #B9BFCD",
"T. c #B7BCCB",
"R. c #B0B4C5",
"E. c #B0B3C5",
"W. c #B1B5C6",
"Q. c #9CA1B7",
"!. c #A2A7BB",
"~. c #9499B1",
"^. c #888DA8",
"/. c #9398B0",
"(. c #7A7F92",
"). c #ADB1C4",
"_. c #A0A5BA",
"`. c #9DA2B8",
"'. c #757B8F",
"]. c #7D82A0",
"[. c #7A7F9D",
"{. c #7C82A0",
"}. c #BABFCD",
"|. c #5D647D",
" X c #8C92AC",
".X c #A6AABE",
"XX c #7C819F",
"oX c #AAAEC1",
"OX c #A8ACC0",
"+X c #A7ACBF",
"@X c #8187A3",
"#X c #757B99",
"$X c #404660",
"%X c #42485F",
"&X c #495067",
"*X c #565D74",
"=X c #60667B",
"-X c #555B73",
";X c #979BAF",
":X c #B7BBCC",
">X c #6D7389",
",X c #575E74",
"<X c #5E6479",
"1X c #525870",
"2X c #525971",
"3X c #80859D",
"4X c #8389A4",
"5X c #7C8E4E",
"6X c #525C5B",
"7X c #3C4260",
"8X c #696F83",
"9X c #7B8094",
"0X c #787E91",
"qX c #52586C",
"wX c #3C435B",
"eX c #3D435D",
"rX c #9BA1B0",
"tX c #ABB0C4",
"yX c #616F56",
"uX c #657355",
"iX c #454C5E",
"pX c #3E445E",
"aX c #3D445D",
"sX c #3E445D",
"dX c #545E5A",
"fX c #5B6758",
"gX c #41485F",
"hX c #9298A5",
"jX c #B7BCC9",
"kX c #A2A6B9",
"lX c #7E839A",
"zX c #5C6857",
"xX c #4E585C",
"cX c #869B4B",
"vX c #9BB444",
"bX c #444C5F",
"nX c #7E8397",
"mX c #9398AB",
"MX c #B5D33C",
"NX c #AAC740",
"BX c #B0CE3E",
"VX c #9DB744",
"CX c #4F585B",
"ZX c #3D445C",
"AX c #7C8195",
"SX c #9297A9",
"DX c #B9D93B",
"FX c #4E575C",
"GX c #545A6F",
"HX c #5A6175",
"JX c #3B415F",
"KX c #3C425E",
"LX c #3F4560",
"PX c #7D904D",
/* pixels */
"                                                                                ",
"                                                                                ",
"                                                                                ",
"                                  . X X X X .                                   ",
"                                . o O + + O o .                                 ",
"                                @ # $ % % $ # @                                 ",
"                            . @ & * = - - = * & @ .                             ",
"                          . o # * ; : > > : ; * # o .                           ",
"                          X O $ = : , < < , : = $ O X                           ",
"                          X + % - 1 2 3 3 2 1 - % + X                           ",
"      4 5 5 5 5 5 5 5 5 6 @ 7 % - 8 9 0 0 9 8 - % 7 @ 6 5 5 5 5 5 5 5 5 4       ",
"    q w e r r r r r r t y u t i p a s d d s a p i t u y t r r r r r r e w q     ",
"  q f g h j k l z j j x c v b n m M N B B N M m n b v c x j j z l k j h g f q   ",
"@ V g C Z A S D F G G H J b K L P I d d d d I P L K b J H G G F D S A Z C g V @ ",
"U Y b T R E W Q ! ~ ~ ^ / K K L ( ) _ ` ` _ ) ( L K K / ^ ~ ~ ! Q W E R T b Y U ",
"% ' n ] [ { } |  .....X.o.L n O.+.@.#.$.$.#.@.+.O.n L o.X..... .| } { [ ] n ' % ",
"%.&.*.=.-.;.:.>.,.<.<.1.2.3.4.4.5.6.7.8.8.7.6.5.4.4.3.2.1.<.<.,.>.:.;.-.=.*.&.%.",
"K ] 9.0.q.w.e.r.s w.w.t.y.u.i.p.a.s.d d d d s.a.p.i.u.y.t.w.w.s r.e.w.q.0.9.] K ",
"K T d.s f.g.h.j.k.l.l.z.x.c.v.b.n.6.m.M.M.m.6.n.b.v.c.x.z.l.l.k.j.h.g.f.s d.T K ",
"K T N.B.V.C.Z.A.S.D.D.F.x.c.G.b.H.J.g.g.g.g.J.H.b.G.c.x.F.D.D.S.A.Z.C.V.B.N.T K ",
"K T N.K.L.V.V.P.P.V.V.P.I.c.U.v.Y.T.l.< < l.T.Y.v.U.c.I.P.V.V.P.P.V.V.L.K.N.T K ",
"K T N.K.L.L.R.L.L.E.E.L.W.c.G.G.Q.!.~.< < ~.!.Q.G.G.c.W.L.E.E.L.L.R.L.L.K.N.T K ",
"K T N.K.L.W.I.W.W.W.W.I.x.c.v.b.^./.< < < < /.^.b.v.c.x.I.W.W.W.W.I.W.L.K.N.T K ",
"K T (.q.)._.`.`.`.`.`.`.S.@.G.G.Q.!.~.< < ~.!.Q.G.G.@.S.`.`.`.`.`.`._.).q.(.T K ",
"K T '.L.S.].[.].].].{.v.~._.v.v.}.T./.< < /.T.}.v.v._.~.v.{.].].].[.].S.L.'.T K ",
"K ] |. X.XXXD.oXOXOX+X@Xh.@.b.#XH.2 ~.< < ~.2 H.#Xb.@.h.@X+XOXOXoXD.XX.X X|.] K ",
"$X%X&X*X=X-X;X:Xq.s K.>X,X<X1X2X3Xn.4X< < 4Xn.3X2X1X<X,X>XK.s q.:X;X-X=X*X&X%X$X",
"5X6X7Xl ; &.8X9XN.N.0XqXwXeX] K rXtXH.D.D.H.tXrXK ] eXwXqX0XN.N.9X8X&.; l 7X6X5X",
"X & yXuXc iXpXaXsXsXsX= dXfXgXL hXjXkXlXlXkXjXhXL gXfXdX= sXsXsXaXpXiXc uXyX& X ",
"  6 5   + zXxX% % % % $ cXvX% bX] nXmXO.O.mXnX] bX% vXcX$ % % % % xXzX+   5 6   ",
"      . MXNXO + + + + O BXMXVXCXZXAXSXL L SXAXZXCXVXMXBXO + + + + O NXMX.       ",
"          @ X X X X X X . DXNXFX= GXHXK K HXGX= FXNXDX. X X X X X X @           ",
"                          . o # * JXKXLXLXKXJX* # o .                           ",
"                            . @ PXyXr r r r yXPX@ .                             ",
"                                6 5 5 5 5 5 5 6                                 ",
"                                                                                ",
"                                                                                ",
"                                                                                ",
"                                                                                ",
"                                                                                "
};
