/* XPM */
static char *cb13372c54244346e561cdbf372483e9zuf217fYVGXOQb8D[] = {
/* columns rows colors chars-per-pixel */
"32 32 7 1 ",
"  c None",
". c #434A5F",
"X c #E2A106",
"o c #FFBD20",
"O c #959AB1",
"+ c #DCE1E7",
"@ c white",
/* pixels */
"                                ",
"                                ",
"                                ",
"                                ",
"              ....              ",
"             ......             ",
"            ...OO...            ",
"            ..OOOO..            ",
"            ..O@@O..            ",
"   ....... ...O@@O... .......   ",
"  ...........O@@@@O...........  ",
" ...++.++....O@@@@O....++.++... ",
"....++.++....OOOOOO....++.++....",
"..Xo++o++ooXXO@@@@OXXoo++o++oX..",
"..ooOOoOOooXXO@@@@OXXooOOoOOoo..",
"..ooOOoOOooXXOOOOOOXXooOOoOOoo..",
"..oooooooooXX+OOOO+XXooooooooo..",
"..oooooooooXXOOOOOOXXooooooooo..",
"..oooooooooXXOOOOOOXXooooooooo..",
"..ooXXXXXXoXX+OOOO+XXoXXXXXXoo..",
"..XoXooooXoXXOOOOOOXXoXooooXoX..",
".....oooo....OXOOXO....oooo.....",
" ............+oOOo+............ ",
"    ...... ...o..o... ......    ",
"            ..o..o..            ",
"            ........            ",
"             ......             ",
"                                ",
"                                ",
"                                ",
"                                ",
"                                "
};
