/* XPM */
static char *_a855bc78df74d19bb4069f02728dfa22b46pcQOBBP5jB55[] = {
/* columns rows colors chars-per-pixel */
"40 40 46 1 ",
"  c #A3C12B",
". c #A4C22C",
"X c #A4C22E",
"o c #A5C32F",
"O c #A6C42E",
"+ c #A7C52F",
"@ c #A6C430",
"# c #A7C531",
"$ c #A8C630",
"% c #A9C731",
"& c #AAC930",
"* c #ABCA31",
"= c #AAC832",
"- c #ABC933",
"; c #ACCB32",
": c #ADCC33",
"> c #AAC834",
", c #ACCA34",
"< c #AECD34",
"1 c #AFCE35",
"2 c #AECC36",
"3 c #AFCD37",
"4 c #B0CF36",
"5 c #B0CE38",
"6 c #B1CF39",
"7 c #B1D037",
"8 c #B2D138",
"9 c #B3D239",
"0 c #B2D03A",
"q c #B4D33A",
"w c #B5D43B",
"e c #B6D53C",
"r c #B7D63D",
"t c #B6D43E",
"y c #B7D53F",
"u c #B8D73E",
"i c #B9D83F",
"p c #BAD940",
"a c #BBDA41",
"s c #BCDB42",
"d c #BEDD44",
"f c #BFDE45",
"g c #C0DF46",
"h c #C1E047",
"j c #C2E148",
"k c #C3E249",
/* pixels */
"eeeeeeeeeeeeeeeeqeeuueeeeeueeeeeeeeeeeee",
"eeeeeeeeeeeeeeeeueeeeueeeuueeeeeeeeeeeee",
"eeeeeeeeeeeeeeeeiewweeeeeueueeeeeeeeeeee",
"eeeeeeeeeeeeeeeeweeeweeueeeeeweueeeeeeee",
"eeeeeeeeeeeeeeeeeispiweew877999eeeeeeeee",
"eeeeeeeeeeeeeeeeidkhpeee84**;<9eeeeeeeee",
"eeeeeeeeeeeeeeeepdkhsewe7;oo$>5eeeeeeeee",
"eeeeeeeeeeeeeeeeesgdpewwq$ oo$3peeeeeeee",
"eeeeeeeeeeeeeeeeueueueue52ooo-5uieeieeee",
"eeeeeeeeeeeeeeeeeueueueu52;--26tiiiieeee",
"eeeeeeeeeeeeeeeeeeeeeeeew5q486qughhieeee",
"eeeeeeeeeeeeeeeeeeeeeeeeuwqueqquhkhseeie",
"eeeeeeeeeeeeeeeeeeeeeeeeueeeeqeuihgieeee",
"eeeeeeeeeeeeeeeeeeeeeeeeeeqeueeeeiieeeee",
"eeeeeeeeeeeeeeeeeeeeeeeeeqqussueeeeeeeee",
"eeeeeeeeeeeeeeeeeeeeeeeeeeugggieeeeeeeee",
"eeeeeeeeeeeeeeeeeeeeeeeeeeugkgieeeeeeeee",
"eeeeeeeeeeeeeeeeeeeeeeeeeeesggiqeeeeeeee",
"eeeeeeeeeeeeeeeeeeeeeeeeeeeuiiieeeeeeeee",
"eeeeeeeeeeeeeeeeeeeeeeeeeeqeeueeeeeeeeee",
"eeeeeeeeeeeeeeeeeeeeeeeeeeeeeeeeeeeeeeee",
"eeeeeeeeeeeeeeeeeeeeeeeeeeeuueeeeeeeeeee",
"eeeeeeeeeeeeeeeeeeeeeeeeeeeeeeeeeeeeeeee",
"eeeeeeeeeeeeeeeeeeeeeeeeueeqeeeeeeeeeeee",
"eqqeueeeeeeeeeeeeeeeeeeeeeeeeeeeeeeeeeee",
"eeeeueeetqeeeeeeeeeeeeeeeeeeeeeeeeeeeeee",
"ueeeeeqqqq6qqeeeeeeeeeeeeeeeeeeeeeeeeeee",
"ueeeeeq842448eeeeeeeeeeeeeeeeeeeeeeeeeee",
"ueeeeeq4$@O-4qeeeeeeeeeeeeeeeeeeeeeeeeee",
"eueeeuq4@ooO4qeeeeeeeeeeeeeeeeeeeeeeeeee",
"eeeqeu84@@oO2qeeeeeeeeeeeeeeeeeeeeeeeeee",
"eueqeeq;>@o$4qeeeeeeeeeeeeeeeeeeeeeeeeee",
"eeeeeqqq44444qeueeeeeeeeeeeeeeeeeeeeeeee",
"eeeeeeeqq868qqeeeeeeeeqeeeeeeeeeeeeeeeee",
"eeeeeqequeeeeeq688eeeeqeeeeeeeeeeeeeeeee",
"eeeeeeeeueeuee44:78eeeeeeeeeeeeeeeeeeeee",
"eeeeeeeeeeqeee8;*;8eeeeeeeeeeeeeeeeeeeee",
"eeeeeeeeeqeeie84488eeeeeeeeeeeeeeeeeeeee",
"eeeeeeeeeeeeeee8eeeeeeeeeeeeeeeeeeeeeeee",
"ueeeeeeeeeeeeeeeieeeeeeeeeeeeeeeeeeeeeee"
};
