/* XPM */
static char *c1735290ca0a44e3fa2fb5e22c981045fh3J2GrnVWAe2e8t[] = {
/* columns rows colors chars-per-pixel */
"40 40 158 2 ",
"   c #3E4255",
".  c #3D445D",
"X  c #37495F",
"o  c #3A495C",
"O  c #334760",
"+  c #3F4360",
"@  c #3B4A62",
"#  c #3D496A",
"$  c #58474F",
"%  c #424756",
"&  c #454C57",
"*  c #41465B",
"=  c #444A5C",
"-  c #4A4B5D",
";  c #544A53",
":  c #5D5553",
">  c #61464F",
",  c #6B4B4D",
"<  c #77444D",
"1  c #7D4D43",
"2  c #77514E",
"3  c #6D5950",
"4  c #645252",
"5  c #74555A",
"6  c #7B505A",
"7  c #725253",
"8  c #404467",
"9  c #444B63",
"0  c #4A4E63",
"q  c #4D4769",
"w  c #4C5263",
"e  c #435069",
"r  c #4D526B",
"t  c #495A6E",
"y  c #545760",
"u  c #54576A",
"i  c #535B6B",
"p  c #4F5673",
"a  c #585D71",
"s  c #615F74",
"d  c #4F616F",
"f  c #5E626F",
"g  c #54626D",
"h  c #4E6471",
"j  c #58627A",
"k  c #686E7E",
"l  c #6C707C",
"z  c #90483C",
"x  c #AD4E30",
"c  c #B84C3A",
"v  c #B6513F",
"b  c #DB4C12",
"n  c #E54E19",
"m  c #EC4E1F",
"M  c #EF551F",
"N  c #EA581E",
"B  c #F05A1B",
"V  c #C64C25",
"C  c #D7532C",
"Z  c #DE542D",
"A  c #D15424",
"S  c #C7583C",
"D  c #EB512B",
"F  c #E25829",
"G  c #E55324",
"H  c #F25522",
"J  c #F15C2C",
"K  c #F3512B",
"L  c #EB5733",
"P  c #E95D3C",
"I  c #D7633C",
"U  c #F16029",
"Y  c #E66836",
"T  c #EF6A3F",
"R  c #F56237",
"E  c #FF6435",
"W  c #FF653B",
"Q  c #F56D3C",
"!  c #FC6B3A",
"~  c #F1633D",
"^  c #8E4D47",
"/  c #9C4945",
"(  c #8B504C",
")  c #96514A",
"_  c #9B574A",
"`  c #895257",
"'  c #925C5A",
"]  c #B45F42",
"[  c #BF5D40",
"{  c #BC5542",
"}  c #BA694B",
"|  c #FF5940",
" . c #CD6147",
".. c #CA6048",
"X. c #EC6B41",
"o. c #FC6B43",
"O. c #F46A43",
"+. c #FB7957",
"@. c #C37D7B",
"#. c #E47D74",
"$. c #B9877E",
"%. c #FF8A62",
"&. c #F5936E",
"*. c #FC8D71",
"=. c #FF977F",
"-. c #697080",
";. c #757784",
":. c #777B86",
">. c #74798A",
",. c #76748C",
"<. c #687391",
"1. c #7B7F9C",
"2. c #698380",
"3. c #7E808F",
"4. c #828598",
"5. c #898C97",
"6. c #938A9D",
"7. c #9B959F",
"8. c #B28C9B",
"9. c #B9878A",
"0. c #8F91A0",
"q. c #999DA6",
"w. c #9898A4",
"e. c #8B9BB5",
"r. c #9DA4AB",
"t. c #9FA6B6",
"y. c #A0A4AD",
"u. c #A4A8B3",
"i. c #B5A7BE",
"p. c #B2B7C9",
"a. c #BEC2CD",
"s. c #BEC1D4",
"d. c #C3C8CE",
"f. c #C6CAD1",
"g. c #CCCDD4",
"h. c #CDD0DC",
"j. c #D3D6DD",
"k. c #FDD1C6",
"l. c #D3D6E7",
"z. c #D9DDE9",
"x. c #D9DCE3",
"c. c #DEE2ED",
"v. c #EDECE7",
"b. c #E3E6ED",
"n. c #E7E8EC",
"m. c #ECEBEC",
"M. c #F0EBE7",
"N. c #FEECE0",
"B. c #F9EEEC",
"V. c #F4ECEA",
"C. c #E6ECF5",
"Z. c #ECEBF1",
"A. c #EFEEFC",
"S. c #FCFBF7",
"D. c #F7F7F9",
"F. c #F7FDFC",
"G. c #FFFFFE",
"H. c #FBF5F5",
/* pixels */
"G.G.G.G.G.G.G.G.G.G.G.G.G.G.G.G.G.G.G.G.G.G.G.G.G.G.G.G.G.G.G.G.G.G.G.G.G.G.G.G.",
"G.G.G.G.G.G.G.G.G.G.G.G.G.G.G.G.G.G.G.G.G.G.G.G.G.G.G.G.G.G.G.G.G.G.G.G.G.G.G.G.",
"G.G.G.G.G.G.G.G.G.G.G.G.G.G.G.G.G.G.G.G.G.G.G.G.G.G.G.G.G.G.G.G.G.G.G.G.G.G.G.G.",
"G.G.G.G.G.G.G.G.G.G.G.G.G.G.G.G.G.G.G.G.G.G.G.G.G.G.G.G.G.G.G.G.G.G.G.G.G.G.G.G.",
"G.G.G.G.G.G.G.G.G.G.G.G.G.G.G.G.G.G.G.G.G.G.G.G.G.G.G.G.G.G.G.G.G.G.G.G.G.G.G.G.",
"G.G.G.G.G.G.G.G.G.G.G.G.G.G.G.G.G.G.G.G.G.G.G.G.G.G.G.G.G.G.G.G.G.G.G.G.G.G.G.G.",
"G.G.G.G.G.G.G.G.G.G.G.G.G.G.G.G.G.G.G.G.G.G.G.G.G.G.G.G.G.G.G.G.G.G.G.G.G.G.G.G.",
"G.G.G.G.G.G.G.G.G.G.G.G.G.G.G.G.G.G.G.G.G.G.G.G.G.G.G.G.G.G.G.G.G.G.G.G.G.G.G.G.",
"G.G.G.F.G.G.G.G.G.G.S.G.G.G.G.G.S.G.G.S.S.G.G.G.G.G.G.G.G.G.G.G.G.G.G.G.G.G.F.G.",
"S.G.G.G.F.S.G.S.G.G.G.S.G.S.G.S.Z.C.C.n.m.C.C.Z.G.G.S.G.S.G.G.S.S.G.S.F.S.G.G.S.",
"G.G.S.G.G.G.G.S.G.G.S.S.G.G.G.S.0.y g j a a y 0.D.G.G.G.S.S.G.G.S.G.G.G.G.S.F.G.",
"F.G.G.G.S.S.G.G.G.G.G.G.F.G.Z.5.t * - * % 9 * t 5.m.G.S.G.G.G.G.G.G.S.S.G.G.G.G.",
"S.G.S.G.G.S.G.F.c.u.r.r.r.a.C.f o s ,.<.<.,.s o f C.d.r.q.r.u.c.F.G.G.G.G.S.G.D.",
"G.G.G.G.S.G.j.h.t.=   = * l p.u = j 6.8.8.6.j = u p.-.* -   = t.h.j.G.D.G.G.G.G.",
"S.G.G.G.G.Z.>.* * 0 u u w = 0 . 9 0 ( Q Q ( 0 9 * 0 = w i u 0 = * ;.C.G.G.G.G.G.",
"G.G.S.G.Z.k = 9 - u s.l.4.- - = @ _ O.! W X._ @ = 9 = 4.l.s.u = 9 - k Z.G.S.G.G.",
"F.S.G.G.M.h   )  .} i.p.9.S x v { A %.k.k.%.A v [ x S $.p.i.} ..) . h v.G.G.G.F.",
"G.S.G.G.v.t r ' E ~ w.e.$.U N E m H =.D.G.=.H m E N J @.e.w.X.E ' 0 i m.G.G.S.F.",
"G.S.F.G.M.g . 5 I o.9.8.#.U n | K H &.G.S.&.M K W n J #.8.9.o.I 5 o i m.G.F.S.G.",
"G.G.F.D.V.k e ; 3 P T Y Q E G ~ C D *.N.N.*.D C ~ D R O.Y X.P 3 $ e k V.D.F.G.G.",
"G.S.G.G.H.A.>.& q $ :  .W B b Q F J W +.+.o.K F Q b B W ..: $ q % >.A.H.G.G.S.G.",
"G.G.F.S.G.F.z.4.# 0 O 4 5 6 < 2 , { o.W E o.{ , 2 < 6 5 4 O 0 # 5.z.S.G.G.F.G.G.",
"G.G.G.G.G.S.G.h.r.w.p = o X e 8 o 7 ] L L ] 7 o 8 e @ O = p 7.r.h.G.S.G.G.S.G.G.",
"S.G.G.G.G.S.S.G.F.B.5.:.1.4.2.- = # , G G , # 8 w 2.3.1.:.5.B.F.G.S.G.F.G.G.G.G.",
"G.G.G.G.G.G.G.G.S.G.G.S.S.G.h.a & @ ` E W ` @ & a h.F.S.S.G.G.S.G.G.G.G.G.G.G.G.",
"G.G.G.G.G.G.G.G.F.G.G.G.G.f.a 0 = z Z ! ! Z z = 0 f g.G.G.G.G.G.G.G.G.G.G.G.G.G.",
"G.G.G.G.G.G.G.G.G.G.G.G.S.f.w . / V N ! ! N V / . w d.S.G.S.G.G.G.G.G.G.G.G.G.G.",
"G.G.G.G.G.G.G.G.G.S.S.G.G.f.* r 1 ^ c H M c ^ 1 r % f.G.G.S.S.G.G.G.G.G.G.G.G.G.",
"G.G.G.G.G.G.G.G.G.G.G.G.G.x.;.* @ # $ c v > @ @ = >.x.G.G.G.G.S.G.G.G.G.G.G.G.G.",
"G.G.G.G.G.G.G.G.S.G.G.G.F.G.b.;.g u + 9 = . p g ;.b.F.S.F.G.G.S.G.G.G.G.G.G.G.G.",
"G.G.G.G.G.G.G.G.G.S.G.G.G.G.D.n.v.w.- = - = w.m.n.D.G.G.G.G.G.S.G.G.G.G.G.G.G.G.",
"G.G.G.G.G.G.G.G.S.G.G.G.S.S.G.G.G.n.d.f.f.d.n.G.G.G.S.S.G.G.G.S.G.G.G.G.G.G.G.G.",
"G.G.G.G.G.G.G.G.G.G.G.G.G.G.G.G.G.G.G.G.G.G.G.G.G.G.G.G.G.G.G.G.G.G.G.G.G.G.G.G.",
"G.G.G.G.G.G.G.G.G.G.G.G.G.G.G.G.G.G.G.G.G.G.G.G.G.G.G.G.G.G.G.G.G.G.G.G.G.G.G.G.",
"G.G.G.G.G.G.G.G.G.G.G.G.G.G.G.G.G.G.G.G.G.G.G.G.G.G.G.G.G.G.G.G.G.G.G.G.G.G.G.G.",
"G.G.G.G.G.G.G.G.G.G.G.G.G.G.G.G.G.G.G.G.G.G.G.G.G.G.G.G.G.G.G.G.G.G.G.G.G.G.G.G.",
"G.G.G.G.G.G.G.G.G.G.G.G.G.G.G.G.G.G.G.G.G.G.G.G.G.G.G.G.G.G.G.G.G.G.G.G.G.G.G.G.",
"G.G.G.G.G.G.G.G.G.G.G.G.G.G.G.G.G.G.G.G.G.G.G.G.G.G.G.G.G.G.G.G.G.G.G.G.G.G.G.G.",
"G.G.G.G.G.G.G.G.G.G.G.G.G.G.G.G.G.G.G.G.G.G.G.G.G.G.G.G.G.G.G.G.G.G.G.G.G.G.G.G.",
"G.G.G.G.G.G.G.G.G.G.G.G.G.G.G.G.G.G.G.G.G.G.G.G.G.G.G.G.G.G.G.G.G.G.G.G.G.G.G.G."
};
