/* XPM */
static char *_a7351f93c764e6fe80604d2f24dfe44s6gKOR1FX8IEixUP[] = {
/* columns rows colors chars-per-pixel */
"40 40 225 2 ",
"   c #3C3C4E",
".  c #263555",
"X  c #323D5D",
"o  c #33225A",
"O  c #273261",
"+  c #373565",
"@  c #3A3671",
"#  c #473C4F",
"$  c #453E5B",
"%  c #483B5B",
"&  c #573C5B",
"*  c #433B6B",
"=  c #433966",
"-  c #543966",
";  c #4D3E73",
":  c #37534B",
">  c #2B495A",
",  c #3C4C55",
"<  c #3D445C",
"1  c #3D4B5C",
"2  c #354A57",
"3  c #3D5555",
"4  c #3B505C",
"5  c #3A5A56",
"6  c #38434A",
"7  c #2B4660",
"8  c #3D4461",
"9  c #344A63",
"0  c #394B68",
"q  c #375665",
"w  c #384975",
"e  c #344B78",
"r  c #3D5275",
"t  c #396565",
"y  c #4B5A4D",
"u  c #464657",
"i  c #464E54",
"p  c #4A4C56",
"a  c #43445A",
"s  c #434B5B",
"d  c #4C4659",
"f  c #544755",
"g  c #4C5355",
"h  c #43535A",
"j  c #4D535B",
"k  c #455A5A",
"l  c #4C5D5D",
"z  c #475A54",
"x  c #565A5B",
"c  c #4D4A4E",
"v  c #635C59",
"b  c #4A6158",
"n  c #5B6555",
"m  c #464463",
"M  c #4C4663",
"N  c #434D63",
"B  c #4C4C64",
"V  c #434C6C",
"C  c #48456C",
"Z  c #534363",
"A  c #584264",
"S  c #534F62",
"D  c #425263",
"F  c #4B5264",
"G  c #425C63",
"H  c #45596B",
"J  c #48566A",
"K  c #57546A",
"L  c #464975",
"P  c #455372",
"I  c #634C6A",
"U  c #67556C",
"Y  c #516160",
"T  c #D73F1A",
"R  c #E93F11",
"E  c #FA3F1F",
"W  c #E43E21",
"Q  c #D74B09",
"!  c #DD5209",
"~  c #D5461A",
"^  c #CE5218",
"/  c #D85615",
"(  c #E14F06",
")  c #E7510F",
"_  c #E14917",
"`  c #E54A18",
"'  c #F14F17",
"]  c #E85217",
"[  c #EE631E",
"{  c #DA4624",
"}  c #DD5626",
"|  c #E64B29",
" . c #E75926",
".. c #FF5B2D",
"X. c #F3582D",
"o. c #E94F33",
"O. c #FD5C33",
"+. c #F65F3A",
"@. c #FA5D38",
"#. c #E95A32",
"$. c #E86628",
"%. c #F6692C",
"&. c #E8702E",
"*. c #EB6B37",
"=. c #F36534",
"-. c #FF6935",
";. c #FF653B",
":. c #F56D3C",
">. c #FF6C3C",
",. c #F76A35",
"<. c #EF7134",
"1. c #ED7939",
"2. c #F67333",
"3. c #FC723B",
"4. c #FF5C4B",
"5. c #FF5F47",
"6. c #FA5B52",
"7. c #FE6445",
"8. c #FF6349",
"9. c #FB6C4B",
"0. c #FB6746",
"q. c #FF744C",
"w. c #F57242",
"e. c #EE6A51",
"r. c #FC6957",
"t. c #E76249",
"y. c #A9BE3A",
"u. c #A0BA3D",
"i. c #9DC735",
"p. c #ABC82F",
"a. c #B8CE2F",
"s. c #A8D52E",
"d. c #B6D52E",
"f. c #B7D92C",
"g. c #B9DD2C",
"h. c #BCD32D",
"j. c #ABCE35",
"k. c #AAC53E",
"l. c #A5CC3B",
"z. c #ACCD3B",
"x. c #A6CF33",
"c. c #B5C53C",
"v. c #BFC73B",
"b. c #B3CC3D",
"n. c #BBCC3D",
"m. c #B8C936",
"M. c #ACD534",
"N. c #A9D932",
"B. c #A6D33A",
"V. c #ACD43C",
"C. c #ADDA3B",
"Z. c #A4D838",
"A. c #B6D535",
"S. c #BBD335",
"D. c #B4DA32",
"F. c #BADB35",
"G. c #B6D53C",
"H. c #BBD43C",
"J. c #B4DC3C",
"K. c #BCDB3C",
"L. c #ACE439",
"P. c #B6E23D",
"I. c #B8E537",
"U. c #BBED31",
"Y. c #C6DB2F",
"T. c #C1CE3C",
"R. c #C2CD34",
"E. c #C2DC34",
"W. c #C2D43D",
"Q. c #C3D93C",
"!. c #C9D43A",
"~. c #D6D838",
"^. c #C0E434",
"/. c #C9E936",
"(. c #C2E33B",
"). c #C7EA39",
"_. c #D2E839",
"`. c #C3F238",
"'. c #98B549",
"]. c #A5BA45",
"[. c #B0BE48",
"{. c #9CC343",
"}. c #ABCC42",
"|. c #AAC647",
" X c #B3C342",
".X c #B3CC42",
"XX c #B4CF4A",
"oX c #B9C746",
"OX c #ACD441",
"+X c #AAD846",
"@X c #B6D545",
"#X c #B5D442",
"$X c #BBD242",
"%X c #B5DB43",
"&X c #BBDA43",
"*X c #B6D549",
"=X c #B5D44B",
"-X c #B4D948",
";X c #BDD548",
":X c #B9E345",
">X c #C3CD43",
",X c #C3CB45",
"<X c #C2D343",
"1X c #C2DA43",
"2X c #C6DA48",
"3X c #C6E545",
"4X c #7C8FB3",
"5X c #8B99AB",
"6X c #8696AE",
"7X c #959DAC",
"8X c #9999AD",
"9X c #829CB3",
"0X c #8C97B2",
"qX c #9798B4",
"wX c #AA97AD",
"eX c #9DA1B0",
"rX c #95A1A8",
"tX c #A6A8AA",
"yX c #8E9AC5",
"uX c #EFE7D3",
"iX c #E6E3E4",
"pX c #F8FFEF",
"aX c #FEFCFD",
"sX c #F5FCFB",
"dX c #CECFEA",
/* pixels */
"G.G.G.G.G.G.G.G.G.G.#XG.#X#X#XA.d.A.G.#X#X#XG.G.H.A.G.#XG.A.G.@XG.G.G.G.G.G.G.G.",
"G.G.G.G.G.G.G.G.#XG.A.A.A.A.A.G.A.A.A.A.A.A.A.A.#XA.K.G.A.H.H.G.G.G.G.G.G.G.G.G.",
"G.G.G.G.G.G.G.G.%XA.A.A.A.A.A.G.G.A.A.A.A.A.A.A.H.A.A.A.A.H.A.G.G.G.G.G.G.G.G.G.",
"G.G.G.G.G.G.G.G.G.A.G.@X;XG.A.%XG.#X@X;X*X@X#XA.#XA.A.A.$X&XG.G.G.G.G.G.G.G.G.G.",
"G.G.G.&XG.G.G.G.G.A.#X=X=X#XA.G.d.D.A.G.G.S.A.A.;XG.A.K.#X$XG.G.G.G.G.G.G.G.G.G.",
"G.G.G.G.G.G.G.G.G.G.G.$X#XA.G.#X*X*X@X#X#X@X@X*X#XG.A.G.#XG.G.#XG.G.G.G.G.G.G.G.",
"G.G.G.G.G.G.G.G.#XG.G.A.A.A.G.@X#XA.D.g.g.d.S.G.G.G.G.G.G.G.A.G.G.G.G.G.G.G.G.G.",
"G.G.G.G.G.G.G.G.A.&XG.A.A.G.G.#X.XH.A.d.d.D.G.b.#X#XG.#XH.A.A.&XG.G.G.G.G.G.G.G.",
"#XG.A.#XG.A.A.G.j.&XA.K.V.m.@XA.A.P..XI.H.b.XXQ.F.K. XC.Q.G.G.G.G.A.A.A.#X&XG.A.",
"A.A.A.&X#X#XG.#X$X%XG.].:X/.i.G.1X,Xy @ L f t oXA.l.Y./.k.G.G.&XG.G.#XG.A.A.G.G.",
"A.A.A.G.G.A.A.A.OXE.b.:XOXc.H.5 9 V + h q   - 4 1 %Xa.z.&XG.Q.z.G.G.G.#XA.A.G.G.",
"b.G.A.#XG.A.K.K.$XD.&XH.K.$Xy @ m B C ` E 0 k 1 @ z W.W.@X&XG.H.#XG.A.A.@X@XG.G.",
"#X#XG.G.G.A.G.%XW.C.=XA.A.1X. U C k < R / d a L U . 2XW..X.X#XF.$XA.A.G.@X*X@XG.",
"G.G.G.G.A.A.G.@XD.A.oX`.l. Xp C { { _ +.>._ Q } = l XXk.(.G.P.M.D.A.G.G.A.A.G.$X",
"G.G.G.A.G.A.G.*XS.Z.K.z.1XP.2 M q & / 1.<.~ } $ F 2 &X(.G.H.l.F.A.G.G.A.A.A.G.#X",
"@X#X$X@X#XA.#X@X=XOXR.*Xz.g.=X, Z w h 4.9.N 3 B 1 oXg.j.%XT.OX;X*X@XG.A.#X@X@XG.",
".Xf.h.F.A.T.G.A.&XN.F 0 k 6 J d < 4 m ~ ] m B a d F   : B 0 #XK.P.#XG.K.G.s.d.&X",
"W.I.j.G.B.K.V.F.J.x.F < s # M g D > I {  .d , 4 h B a c 4 5 z.P.#Xb./.c.#XQ.F.z.",
"j.I.G.W.G.P.|.*X1 x + p q V * m w : 0...$.0.4.0 a A e r I = y s 5 -Xl.x.&X%Xm.Q.",
"n.S.l.F.`.{.v a d > K 5.<.$.' ,.( / ..e.q.O.$.! *.] %.[ t.D < ; = x .X!.Z.H.C.b.",
"+XQ._.m.|., + q G O.2.,.r.@.T >.| | 2.aXsXw.=.o.-.~ 5...0.3.X.b % t , G.S.A.A.#X",
"&XoX$X}.3Xn B 1 *.5.qXyXqX:.Q >.) |  .pXpX#.=.) ;.Q :.q.0X8X0.=.1.o l >Xx.R.(.=X",
"L.n.$X}.;X+ 0 1 w.-.qXqXqX@.` r.~ | <.aXaX>.2.~ 7._ +.;.qXwX<.,.=.x 7 %XC.l.n.K.",
"V.K.G.L.H.s r Z 8.=.9XeXqX:.^ 7.o.W :.sXaX0.=.| 8.^ 8.>.9X7X3.6.8.B 0 ,XL.G.G.N.",
"k.&XA.F. Xn O q i a uXdXiXJ i a a = 2.-.&.;.<.- , j < e iXuXu h G O n |.H.H.&XOX",
"Q.<X XA.).'.x c w d J S w % j M G % h 6.4., n 2 m N C p + J c w < n ]._.S.y.G.Q.",
"M.J.*Xz.F.H.b.+Xb.k s 3 c 0  Xz w P 6X7XtX5X4XV a V.N A l q x D.%XOXG.A.s.M.F.D.",
"s.K.&XG.Z.G.Q.(.D.< 4 N g p E.D C t 7XwX7XrX0XG i ^.N * z 9 x M.K.K.A.A.M.F.F.M.",
"S.C.H.G.K.G..Xk.#X;XF.A.#XG.y.x j f j 1 s N x i h v. X:XI.v.>X@X].}.G.Q.J.%X#X&X",
"#XOXV.K.H.n.&XI.A.J.Q.N.z.P.Y.b.H J b l v l 5 K |._.U.Z.%XG.M.F.).G.V.G.J.G.b.G.",
"1XH.#XG.A.C.G.n.K.k.@X~.M.k.G.*Xn.Q.D.H.b.C.E.V._.'.B.n.c.S.I.;Xb.A.K.F.A.G.G.F.",
"V.H.G.G.n.K.G.#X.XU.z.|.U.%Xa.P.&XB.>X&XG.T..XK.V.W.#XG.J.W.}.D.K.&XG.V.H.H.%X#X",
"G.G.G.G.G.G.G.G.G.G.G.G.G.G.G.G.G.G.G.G.G.G.&XG.G.G.G.G.G.G.G.G.G.G.G.G.G.G.G.G.",
"G.G.G.G.G.G.G.G.G.G.G.G.G.G.G.&X#XG.G.&XK.G.G.G.G.G.G.G.G.G.G.G.G.G.G.G.G.G.G.G.",
"G.G.G.G.G.G.G.G.G.G.G.G.G.G.G.G.G.G.G.G.G.&XG.G.G.G.G.G.G.G.G.G.G.G.G.G.G.G.G.G.",
"G.G.G.G.G.G.G.G.G.G.G.G.G.G.G.G.G.G.G.G.G.G.G.G.G.G.G.G.G.G.G.&XG.G.G.G.G.G.G.G.",
"G.G.G.G.G.G.G.G.G.G.G.G.G.G.G.G.G.G.G.G.G.G.G.G.G.G.G.G.G.G.G.G.G.G.G.G.G.G.G.G.",
"G.G.G.G.G.G.G.G.G.G.G.G.G.G.G.G.G.G.M.G.G.A.G.G.G.G.G.G.G.G.G.G.G.G.G.G.G.G.G.G.",
"G.G.G.G.G.G.G.G.G.G.G.G.G.G.G.G.G.G.G.G.G.G.G.G.G.G.G.G.G.G.G.G.G.G.G.G.G.G.G.G.",
"G.G.G.G.#XG.G.G.G.G.G.G.G.G.G.G.b.G.G.G.G.G.G.G.G.G.G.G.G.G.G.G.G.G.G.G.G.&XG.G."
};
