/* XPM */
static char *_dd59c8148964ad6db750dfb2ac47d50StNHMaymTm481ELF[] = {
/* columns rows colors chars-per-pixel */
"40 40 224 2 ",
"   c #3C3C4E",
".  c #263555",
"X  c #323D5D",
"o  c #33225A",
"O  c #273261",
"+  c #373565",
"@  c #3A3671",
"#  c #473C4F",
"$  c #453E5B",
"%  c #483B5B",
"&  c #573C5B",
"*  c #433B6B",
"=  c #433966",
"-  c #543966",
";  c #4D3E73",
":  c #37534B",
">  c #2B495A",
",  c #3C4C55",
"<  c #3D445C",
"1  c #3D4B5C",
"2  c #354A57",
"3  c #3D5555",
"4  c #3B505C",
"5  c #3A5A56",
"6  c #38434A",
"7  c #2B4660",
"8  c #3D4461",
"9  c #344A63",
"0  c #394B68",
"q  c #375665",
"w  c #384975",
"e  c #344B78",
"r  c #3D5275",
"t  c #396565",
"y  c #4B5A4D",
"u  c #464657",
"i  c #464E54",
"p  c #4A4C56",
"a  c #43445A",
"s  c #434B5B",
"d  c #4D4A5E",
"f  c #4B4557",
"g  c #544755",
"h  c #4C5355",
"j  c #43535A",
"k  c #4D535B",
"l  c #455A5A",
"z  c #4C5D5D",
"x  c #475A54",
"c  c #565A5B",
"v  c #4D4A4E",
"b  c #635C59",
"n  c #4A6158",
"m  c #5B6555",
"M  c #464463",
"N  c #4C4663",
"B  c #434D63",
"V  c #4C4C64",
"C  c #434C6C",
"Z  c #48456C",
"A  c #534363",
"S  c #584264",
"D  c #534F62",
"F  c #425263",
"G  c #4B5264",
"H  c #425C63",
"J  c #45596B",
"K  c #48566A",
"L  c #57546A",
"P  c #464975",
"I  c #455372",
"U  c #634C6A",
"Y  c #67556C",
"T  c #516160",
"R  c #D73F1A",
"E  c #E93F11",
"W  c #FA3F1F",
"Q  c #E43E21",
"!  c #D74B09",
"~  c #DD5209",
"^  c #D5461A",
"/  c #CE5218",
"(  c #D85615",
")  c #E14F06",
"_  c #E7510F",
"`  c #E14917",
"'  c #E54A18",
"]  c #F14F17",
"[  c #E85217",
"{  c #EE631E",
"}  c #DA4624",
"|  c #DD5626",
" . c #E64B29",
".. c #E75926",
"X. c #FF5B2D",
"o. c #F3582D",
"O. c #E94F33",
"+. c #FD5C33",
"@. c #F65F3A",
"#. c #FA5D38",
"$. c #E95A32",
"%. c #E86628",
"&. c #F6692C",
"*. c #E8702E",
"=. c #EB6B37",
"-. c #F36534",
";. c #FF6935",
":. c #FF653B",
">. c #F56D3C",
",. c #FF6C3C",
"<. c #F76A35",
"1. c #EF7134",
"2. c #ED7939",
"3. c #F67333",
"4. c #FC723B",
"5. c #FF5C4B",
"6. c #FF5F47",
"7. c #FA5B52",
"8. c #FE6445",
"9. c #FF6349",
"0. c #FB6C4B",
"q. c #FB6746",
"w. c #FF744C",
"e. c #F57242",
"r. c #EE6A51",
"t. c #FC6957",
"y. c #E76249",
"u. c #A9BE3A",
"i. c #A0BA3D",
"p. c #9DC735",
"a. c #ABC82F",
"s. c #B8CE2F",
"d. c #A8D52E",
"f. c #B6D52E",
"g. c #B7D92C",
"h. c #B9DD2C",
"j. c #BCD32D",
"k. c #ABCE35",
"l. c #AAC53E",
"z. c #A5CC3B",
"x. c #ACCD3B",
"c. c #A6CF33",
"v. c #B5C53C",
"b. c #BFC73B",
"n. c #B3CC3D",
"m. c #BBCC3D",
"M. c #B8C936",
"N. c #ACD534",
"B. c #A9D932",
"V. c #A6D33A",
"C. c #ACD43C",
"Z. c #ADDA3B",
"A. c #A4D838",
"S. c #B6D535",
"D. c #BBD335",
"F. c #B4DA32",
"G. c #BADB35",
"H. c #B6D53C",
"J. c #BBD43C",
"K. c #B4DC3C",
"L. c #BCDB3C",
"P. c #ACE439",
"I. c #B6E23D",
"U. c #B8E537",
"Y. c #BBED31",
"T. c #C6DB2F",
"R. c #C1CE3C",
"E. c #C2CD34",
"W. c #C2DC34",
"Q. c #C2D43D",
"!. c #C3D93C",
"~. c #C9D43A",
"^. c #D6D838",
"/. c #C0E434",
"(. c #C9E936",
"). c #C2E33B",
"_. c #C7EA39",
"`. c #D2E839",
"'. c #C3F238",
"]. c #98B549",
"[. c #A5BA45",
"{. c #B0BE48",
"}. c #9CC343",
"|. c #ABCC42",
" X c #AAC647",
".X c #B3C342",
"XX c #B3CC42",
"oX c #B4CF4A",
"OX c #B9C746",
"+X c #ACD441",
"@X c #AAD846",
"#X c #B5D443",
"$X c #BBD242",
"%X c #B5DB43",
"&X c #BBDA43",
"*X c #B5D44A",
"=X c #B4D948",
"-X c #BDD548",
";X c #B9E345",
":X c #C3CD43",
">X c #C3CB45",
",X c #C2D343",
"<X c #C2DA43",
"1X c #C6DA48",
"2X c #C6E545",
"3X c #7C8FB3",
"4X c #8B99AB",
"5X c #8696AE",
"6X c #959DAC",
"7X c #9999AD",
"8X c #829CB3",
"9X c #8C97B2",
"0X c #9798B4",
"qX c #AA97AD",
"wX c #9DA1B0",
"eX c #95A1A8",
"rX c #A6A8AA",
"tX c #8E9AC5",
"yX c #EFE7D3",
"uX c #E6E3E4",
"iX c #F8FFEF",
"pX c #FEFCFD",
"aX c #F5FCFB",
"sX c #CECFEA",
/* pixels */
"H.H.H.H.H.H.H.H.S.H.H.H.H.%X#XH.#XC.D.J.&X#XL.B.|.!.B.F.H.H.!.H.H.H.H.H.H.H.H.H.",
"H.H.H.H.H.H.H.H.H.H.H.H.#XH.H.$XD.G.v.Z.J.L.m.C.;XJ.G.L.#X#Xn.K.H.H.H.H.H.H.H.H.",
"H.H.H.H.H.H.H.H.#XD.S.#X=XS.S.#Xd.!.%XJ.N.E.z.%XQ.u.S.F.#XK.n.&XH.H.H.H.H.H.H.H.",
"H.H.H.H.H.H.H.H.H.S.H.#X#XL.S.#XH.XX&XB.T.c.Z.Z.J.D.d.d.I.H.D.H.H.H.H.H.H.H.H.H.",
"H.H.H.&XH.H.H.H.S.H.H.H.H.H.S.H.L.v.A.~.N.R.;X>X X`.f.S.L.H.L.C.H.H.H.H.H.H.H.H.",
"H.H.H.H.H.H.H.H.S.H.H.H.S.H.S.H.H.(.l.-X, c 7 0 m [.H.L.J.x.H.H.H.H.H.H.H.H.H.H.",
"H.H.H.H.H.H.H.H.H.H.H.H.H.S.H.#X+Xn.=Xc t o c V . m +X&X|.I.H.J.H.H.H.H.H.H.H.H.",
"H.H.H.H.H.H.H.H.#XH.D.H.#XF.D.*XI.$X5 + % 2.-.6.K 2 %X!.i._.n.L.%XH.H.H.H.H.H.H.",
"#XL.H.H.H.H.J.H.n.L.|.m.G.N.L.oXL.I.s ; x +.<.5.s r S.N.%XG.-XS.H.H.H.H.H.H.H.H.",
"H.H.H.H.#XJ.L.H.L.H.).L.#XI.z.C.$Xx.y 8 -.0.=.4.u g x c >XN.I.x.H.H.H.H.H.H.H.H.",
"H.D.H.H.H.H.D.H.n.H.H.&X#Xx.!.R.0 5 = B 4.7XqX4XyXB r 4 b.H.D.Q.H.H.H.H.H.H.H.H.",
"H.J.H.H.#X#XH.H.!.l.&X$X#X).H.#XG 1 L y.,.9X0X8XuXX z x P.;Xv.K.H.H.H.H.H.H.H.H.",
"#XH.S.L.H.H.H.&XV.'.x.<X~.u.).k.: g r %.X.w.:.,.e j S * %XA.m.H.H.H.H.H.H.H.H.H.",
"H.D.D.G.S.S.H.H..XT.s.J.1XoX&Xh.    e &.6.>.@.6.M Z V s .XY.C.H.H.H.H.H.H.H.H.H.",
"H.H.D.H.H.H.H.J.!.z.H.x . z 2 $XV B g ] ^ ! ` / k B C.U.b.`.i.,XH.H.H.H.H.H.H.H.",
"H.H.H.#X#X#XH.#XK.H., @ Y = G < d j a e.;.:.6.q., N a s j  X`.C.H.H.H.H.H.H.H.H.",
"H.S.S.H.S.*XH.n.W.OX4 s P | % C % 2 0 ~ O.~ ^  .- 2 I J i D |.L.H.H.H.H.H.H.H.H.",
"H.S.S.#XS.*XS.H.oXt - z a ! | j G , 5.*.-.=.;.-.3.m 3X4Xc 5 ).XXH.&XL.H.H.H.H.H.",
"#XS.D.#XS.#Xf.F.XXg X M d ^ ^ s M A q.;.e.$.,.q.:.2 4XeX1 G K.R.H.H.&XH.H.H.H.H.",
"%XS.D.#XH.#Xg.g.J.P 9 ] ( ,.1.0.` [ %.w.aXiXpXpX*.5.rX6Xk b x.F.H.H.H.H.H.H.H.H.",
"#XD.S.#XH.#Xg.h.G.* j ' E #.2.5.^ } X.r.pXiXpXaX,.7.6XqX, n $X&XH.H.H.H.H.H.H.H.",
"H.S.H.#XH.#Xf.D.XXy 7 Z i ^ ( j M U q.X.>...1.>.1.k 5X6Xj n F.>XH.#XH.H.H.H.H.H.",
"S.S.H.H.f.#XH.H.U.OXZ D q  .& w 4 > : ( }  . .Q = % I t g K !.V.H.H.H.H.H.H.H.H.",
"f.H.H.H.f.*X#X#XH.-X9 M M } q S < F w )  ._ ^ o.a F w A k J n.2XH.H.H.H.H.S.H.H.",
"S.H.H.H.H.#X#X#XS.H.5 @ Y M V , d h s <.,.:.t.:.1 A x s c n.=XH.H.H.H.H.H.&XH.H.",
"H.H.S.S.H.H.#XH.%Xp.J.y . h > oXV d * ] ^ !  ./ i k {.W.a.D.H.s.H.H.H.H.H.H.H.H.",
"H.H.S.H.H.H.G.H.v.(.v.-X1X.XI.h.6 # P %.+.>.:.<.K % 9 h #XI.XX%XH.H.H.H.H.H.H.H.",
"H.H.H.%X*XH.S.S.+X;X|.L.D.z.!.H.j s H =.t.9X0X0XuXw p h #Xn.d.U.H.H.H.H.H.H.H.H.",
"H.S.H.%X*X#XS.S.L.[.;XD.H.'.|.#X0 1 p q.1.tX7XwXsXD 5 0 H.d.^.|.H.H.H.H.H.H.H.H.",
"H.S.D.H.$XH.H.H.S.K.XX,XoXXX!.E.G G + L 4.0X0X8XyXI s 1 L.!.#Xn.H.H.H.H.H.H.H.H.",
"H.H.S.S.H.H.H.#X,XK.W.F.N.H.A.+XB.k.h > +.6.;.-.a d x , ,XH.l.Y.H.H.H.H.H.H.H.H.",
"H.#X#XH.H.H.H.H.x.$X+X$XL.F.S.*X-XH.1 d H =.e.9.p 0 n.S.=XS.U.XXH.H.H.H.H.H.H.H.",
"H.H.H.H.H.H.H.H.H.H.H.G.&X%X=X#XN.L.%X< q 1 9 S 1 u V.2Xl.I.m.#XH.H.H.H.%XH.H.H.",
"H.H.H.H.H.H.H.H.F.H.S.S.H.H.H.#XH.H. Xb + V 0 J O m XX!.m.&XH.K.H.H.H.H.H.H.H.H.",
"H.H.H.H.H.&XH.H.H.H.H.H.H.S.S.H.Q.L.U.}.i T M a m ].J.K.H.m.H.H.H.H.H.H.H.H.H.H.",
"H.H.H.H.H.H.H.H.H.#XH.H.H.S.H.H.H.z.D.'.i.2X-XXX.X_.G.A.K.J.K.J.H.H.H.H.H.H.H.H.",
"H.H.H.H.H.H.H.H.H.H.H.H.H.H.H.#Xh.K.Q.S.M.|.#XP.G.D.x.n.H.L.H.H.H.H.H.H.H.H.H.H.",
"H.H.H.H.H.H.H.H.H.S.H.H.H.H.H.#XE.k.H.z.`.$X$XC.H..X=X&XJ.V.n.H.H.H.H.H.H.H.H.H.",
"H.H.H.H.H.H.H.H.H.S.S.H.H.H.H.#Xg./.U.H.!..Xm.L.Q.,XI.L.H.+XJ.J.H.H.H.H.H.H.H.H.",
"H.H.H.H.H.H.H.H.J.H.S.n.#XH.H.&X#XJ.l.Q.+X#XZ.C.|.L.N.d.D.#X<XC.H.H.H.H.H.H.H.H."
};
