/* XPM */
static char *_47e081c878f4687b7068a7efd42d1babDfeTci6DGpKMBhu[] = {
/* columns rows colors chars-per-pixel */
"40 40 224 2 ",
"   c #3C3C4E",
".  c #263555",
"X  c #323D5D",
"o  c #33225A",
"O  c #273261",
"+  c #373565",
"@  c #3A3671",
"#  c #473C4F",
"$  c #453E5B",
"%  c #483B5B",
"&  c #573C5B",
"*  c #433B6B",
"=  c #433966",
"-  c #543966",
";  c #4D3E73",
":  c #37534B",
">  c #2B495A",
",  c #3C4C55",
"<  c #3D445C",
"1  c #3D4B5C",
"2  c #354A57",
"3  c #3D5555",
"4  c #3B505C",
"5  c #3A5A56",
"6  c #38434A",
"7  c #2B4660",
"8  c #3D4461",
"9  c #344A63",
"0  c #394B68",
"q  c #375665",
"w  c #384975",
"e  c #344B78",
"r  c #3D5275",
"t  c #396565",
"y  c #4B5A4D",
"u  c #464657",
"i  c #464E54",
"p  c #4A4C56",
"a  c #43445A",
"s  c #434B5B",
"d  c #4D4A5E",
"f  c #4B4557",
"g  c #544755",
"h  c #4C5355",
"j  c #43535A",
"k  c #4D535B",
"l  c #455A5A",
"z  c #4C5D5D",
"x  c #475A54",
"c  c #565A5B",
"v  c #4D4A4E",
"b  c #635C59",
"n  c #4A6158",
"m  c #5B6555",
"M  c #464463",
"N  c #4C4663",
"B  c #434D63",
"V  c #4C4C64",
"C  c #434C6C",
"Z  c #48456C",
"A  c #534363",
"S  c #584264",
"D  c #534F62",
"F  c #425263",
"G  c #4B5264",
"H  c #425C63",
"J  c #45596B",
"K  c #48566A",
"L  c #57546A",
"P  c #464975",
"I  c #455372",
"U  c #634C6A",
"Y  c #67556C",
"T  c #516160",
"R  c #D73F1A",
"E  c #E93F11",
"W  c #FA3F1F",
"Q  c #E43E21",
"!  c #D74B09",
"~  c #DD5209",
"^  c #D5461A",
"/  c #CE5218",
"(  c #D85615",
")  c #E14F06",
"_  c #E7510F",
"`  c #E14917",
"'  c #E54A18",
"]  c #F14F17",
"[  c #E85217",
"{  c #EE631E",
"}  c #DA4624",
"|  c #DD5626",
" . c #E64B29",
".. c #E75926",
"X. c #FF5B2D",
"o. c #F3582D",
"O. c #E94F33",
"+. c #FD5C33",
"@. c #F65F3A",
"#. c #FA5D38",
"$. c #E95A32",
"%. c #E86628",
"&. c #F6692C",
"*. c #E8702E",
"=. c #EB6B37",
"-. c #F36534",
";. c #FF6935",
":. c #FF653B",
">. c #F56D3C",
",. c #FF6C3C",
"<. c #F76A35",
"1. c #EF7134",
"2. c #ED7939",
"3. c #F67333",
"4. c #FC723B",
"5. c #FF5C4B",
"6. c #FF5F47",
"7. c #FA5B52",
"8. c #FE6445",
"9. c #FF6349",
"0. c #FB6C4B",
"q. c #FB6746",
"w. c #FF744C",
"e. c #F57242",
"r. c #EE6A51",
"t. c #FC6957",
"y. c #E76249",
"u. c #A9BE3A",
"i. c #A0BA3D",
"p. c #9DC735",
"a. c #ABC82F",
"s. c #B8CE2F",
"d. c #A8D52E",
"f. c #B6D52E",
"g. c #B7D92C",
"h. c #B9DD2C",
"j. c #BCD32D",
"k. c #ABCE35",
"l. c #AAC53E",
"z. c #A5CC3B",
"x. c #ACCD3B",
"c. c #A6CF33",
"v. c #B5C53C",
"b. c #BFC73B",
"n. c #B3CC3D",
"m. c #BBCC3D",
"M. c #B8C936",
"N. c #ACD534",
"B. c #A9D932",
"V. c #A6D33A",
"C. c #ACD43C",
"Z. c #ADDA3B",
"A. c #A4D838",
"S. c #B6D535",
"D. c #BBD335",
"F. c #B4DA32",
"G. c #BADB35",
"H. c #B6D53C",
"J. c #BBD43C",
"K. c #B4DC3C",
"L. c #BCDB3C",
"P. c #ACE439",
"I. c #B6E23D",
"U. c #B8E537",
"Y. c #BBED31",
"T. c #C6DB2F",
"R. c #C1CE3C",
"E. c #C2CD34",
"W. c #C2DC34",
"Q. c #C2D43D",
"!. c #C3D93C",
"~. c #C9D43A",
"^. c #D6D838",
"/. c #C0E434",
"(. c #C9E936",
"). c #C2E33B",
"_. c #C7EA39",
"`. c #D2E839",
"'. c #C3F238",
"]. c #98B549",
"[. c #A5BA45",
"{. c #B0BE48",
"}. c #9CC343",
"|. c #ABCC42",
" X c #AAC647",
".X c #B3C342",
"XX c #B3CC42",
"oX c #B4CF4A",
"OX c #B9C746",
"+X c #ACD441",
"@X c #AAD846",
"#X c #B5D443",
"$X c #BBD242",
"%X c #B5DB43",
"&X c #BBDA43",
"*X c #B5D44A",
"=X c #B4D948",
"-X c #BDD548",
";X c #B9E345",
":X c #C3CD43",
">X c #C3CB45",
",X c #C2D343",
"<X c #C2DA43",
"1X c #C6DA48",
"2X c #C6E545",
"3X c #7C8FB3",
"4X c #8B99AB",
"5X c #8696AE",
"6X c #959DAC",
"7X c #9999AD",
"8X c #829CB3",
"9X c #8C97B2",
"0X c #9798B4",
"qX c #AA97AD",
"wX c #9DA1B0",
"eX c #95A1A8",
"rX c #A6A8AA",
"tX c #8E9AC5",
"yX c #EFE7D3",
"uX c #E6E3E4",
"iX c #F8FFEF",
"pX c #FEFCFD",
"aX c #F5FCFB",
"sX c #CECFEA",
/* pixels */
"H.H.H.H.H.H.H.H.C.<X&XD.k.N.!.z.H.I.%X@Xm.x.J.XX#XH.H.XXH.S.H.H.H.H.H.H.H.H.H.H.",
"H.H.H.H.H.H.H.H.H.m.C.H.K.K.,X&XL.n..X!.D.U./.g.#XJ.H.#XH.S.S.H.H.H.H.H.H.H.&XH.",
"H.H.H.H.H.H.H.H.%XH.C.J.&X=X{.S.H.$X,X`.z.C.k.j.#XH.H.H.H.H.H.H.H.H.H.H.H.H.H.H.",
"H.H.H.H.H.H.H.H.H.H.H.L.H.x.D.G.P.|.|.M.L.~.H.G.&XH.S.H.H.H.H.H.H.H.H.H.H.H.H.H.",
"H.H.H.&XH.H.H.H.J.H.J.K.A.G._.{.H.>X2Xu.'.H.V.K.H.S.L.H.H.H.#XH.H.H.H.H.H.H.H.H.",
"H.H.H.H.H.H.H.H.H.H.m.H.K.J.].m s + T i  XI.L.R.H.S.S.H.S.H.H.H.H.H.H.H.H.H.H.H.",
"H.H.H.H.H.H.H.H.K.H.&Xv.!.XXm . J 0 C + c  XH.H.H.H.H.H.S.S.H.S.H.H.H.H.H.H.H.H.",
"H.H.H.H.H.H.H.H.H.XXU..X).@Xu 1 A 1 1 q a %XG.k.=X=X#X#XL.S.H.H.H.H.H.H.H.H.H.H.",
"H.H.H.H.H.H.H.H.XX!.N.#XF.n.0 p 9.e.=.H % 2 H.-X*Xs.F.L.$X+X$Xx.H.H.H.H.H.#X#XH.",
"H.H.H.H.H.H.H.H.Y.|.K.,X, x N a -.,.9.+.> c N.B.oXA.S.C.F.W.H.<X%XH.H.S.D.H.H.H.",
"H.H.H.H.H.H.H.H.k.#X!.L.1 s I yX5X0X0X3.L + G k D.!.XXXX&XXXK.S.H.H.J.#XK.S.S.H.",
"H.H.H.H.H.H.H.H.|.^.B.J.C 3 k sXwX0XtX1.q.d 1 0 #X|.'.H.J.;X[.L.S.S.#X*X#XH.S.H.",
"H.H.H.H.H.H.H.H.U.B.H.+Xh f w uX0X0X9Xt.*.J s 3 n.!.z.D.J.@X<XZ.S.S.H.*X#XH.H.H.",
"H.H.H.H.H.H.H.H.%Xv.U.n.h 0 $ K >.;.>.+.%.P # 6 h.U..X1X$Xv.(.v.H.H.H.H.H.S.H.J.",
"H.H.H.H.H.H.H.H.D.H.W.u.W..Xk i /  .) R ] * N K XX2 h . y H.p.%XH.H.H.H.S.S.H.H.",
"H.H.H.H.H.H.H.%XH.=Xn.c j i N 8 :.t.:.,.<.s h d 1 V Z Y @ 5 H.S.#X#X#XH.H.H.H.F.",
"H.H.H.H.H.H.H.H.;Xb.K k N w H s O.^ `  .) w j < A q } * d 9 <XH.XX$X*Xf.H.H.H.f.",
"H.K.H.H.H.&XH.H.C.!.K g t P % + E  . .} | : > , w & } H N C OXU.H.H.#XF.H.H.S.S.",
"H.H.H.H.H.H.&XH.:XG.n j 6X5Xj 3.>.3...2.X.q.U M j ( ^ , Z X y OXS.F.#XS.#XS.S.H.",
"H.H.H.H.H.H.H.H.&XJ.n s qX6X7.;.aXpXiXpXr.+.} ^ 5.2.:.E ' x @ U.g.g.#XS.$XH.S.#X",
"H.n.H.H.H.L.&XH.Z.x.b d 6XrX9.*.pXpXiXpXw.%..._ 0.1.,.( ] q P m.g.j.#XJ.#XS.D.#X",
"S.H.H.H.H.H.H.H.R.K.z 1 eX4X2 8.q.,.$.e.X.q.A M s ^ ` d * X g XXF.f.#XH.#XS.S.#X",
"H.H.H.H.H.H.H.H.XX/.5 L 4X3Xm 3.-.&.<.-.%.5., V i | ! a H - n oXH.S.#XF.#XJ.F.H.",
"C.S.H.H.H.H.H.J.L.C.D i J C 2 -  .^ ( O.~ 0 2 s C a | P s 4 OXG.#Xn.*XF.H.S.S.H.",
"H.H.H.H.H.H.H.H.C.`. Xj i a N , 8.6.:.;.=.u F f 8 G = Y @ 1 L.F.&X#X#X#XH.H.J.H.",
"H.H.H.H.H.H.H.H.,Xi.`.b.U.+XB k / ` ! } [ S G G $X2 z . x K.p.&XH.H.J.H.J.D.J.H.",
"H.H.H.H.H.H.H.H.#XV.Y..Xs V * 8 6.@.3.9.&.e $   G.&X*X1XR.s.T.v.H.H.J.S.S.S.S.H.",
"H.H.H.H.H.H.H.H.H.m.A.;X* S h e ,.;.w.X.{ r g : k.).u.Q.<Xx.'.C.H.H.H.H.K.D.K.H.",
"H.H.H.H.H.H.H.H.K.v.%XP.x z X uX3X0X9X4.y.U 9 B H.H.U.#X#X#Xl.!.H.H.J.#XH.H.J.H.",
"H.H.H.H.H.H.H.H.Q.D.H.b.0 q B yX4XqX0X4.F = 5 B Q.Q.XX+X&XJ.H.J.H.S.H.$XJ.H.H.J.",
"H.H.H.H.H.H.H.H.|.U.N.:Xc c f u 4.1.0.o.M y z.#X+Xz.K.H.J._.H.H.J.L.H.#XH.H.K.H.",
"H.H.H.H.H.H.H.H.f.-XG.=XN.F.I j 7.<.+.n Z s K.L.-XL.S.G.J.l.&Xn.H.H.H.H.H.H.H.&X",
"H.H.H.H.H.H.H.H.<XS._.[.L.%X2 K 6.@.2.$ + x J.K.*XH.F.H.n.H.H.H.H.H.H.H.H.H.H.H.",
"H.H.H.H.H.H.H.H.J.H.L.|.I.+Xm O V c o t L @Xm.+X#XH.H.H.H.H.J.H.H.H.H.H.H.H.H.H.",
"H.H.H.H.H.H.H.H.#XL.x.J.J.L.[.m 0 > z , $Xz.(.H.H.S.H.S.H.H.J.F.H.H.H.H.H.H.H.H.",
"H.H.H.H.H.H.H.H.C.G.H.L.S.F.`.[.>X<X>Xc.~.B.n.L.H.S.J.K.H.H.H.K.H.H.H.H.H.H.H.H.",
"H.H.H.H.H.H.H.H.H.J.K.K.B.d.s.J.P.A.c.W.V.&XXXC.H.S.S.#X#XH.S.H.H.H.H.H.H.H.H.H.",
"H.#XH.H.H.H.H.H.L.n.K.#XF.F.u.$XH.z.E.S.J.&X!.d.#XS.S.*X#XS.H.#XH.H.H.H.H.H.H.H.",
"H.H.H.H.H.H.H.H.H.H.H.#XG.G.J.&XH.m.I.J.Z.M.G.j.#XJ.H.%X#XH.S.H.H.H.H.H.H.H.H.H.",
"H.H.H.H.H.H.H.H.H.J.H.&XN.F.!.+XB.L.#X$XH.!.C.$X#X#X#XH.D.H.H.S.H.H.H.H.H.H.H.H."
};
