/* XPM */
static char *_18635d60a714953bd248a6eedd62e77UJZgyU9frMs3nH9H[] = {
/* columns rows colors chars-per-pixel */
"40 40 224 2 ",
"   c #3C3C4E",
".  c #263555",
"X  c #323D5D",
"o  c #33225A",
"O  c #273261",
"+  c #373565",
"@  c #3A3671",
"#  c #473C4F",
"$  c #453E5B",
"%  c #483B5B",
"&  c #573C5B",
"*  c #433B6B",
"=  c #433966",
"-  c #543966",
";  c #4D3E72",
":  c #37534B",
">  c #2C4C55",
",  c #2C495E",
"<  c #3C4C55",
"1  c #3D445C",
"2  c #3D4B5C",
"3  c #364958",
"4  c #3D5555",
"5  c #3B505C",
"6  c #3A5A56",
"7  c #38434A",
"8  c #2B4660",
"9  c #3D4461",
"0  c #344A62",
"q  c #394B68",
"w  c #375765",
"e  c #384975",
"r  c #344B78",
"t  c #3D5275",
"y  c #396565",
"u  c #4B5A4D",
"i  c #464657",
"p  c #464E54",
"a  c #4A4C56",
"s  c #43445A",
"d  c #424B5B",
"f  c #4C4659",
"g  c #544755",
"h  c #4C5355",
"j  c #43535A",
"k  c #4D535B",
"l  c #455A5A",
"z  c #4C5D5D",
"x  c #475A54",
"c  c #565A5B",
"v  c #4D4A4E",
"b  c #635C59",
"n  c #4A6159",
"m  c #5B6555",
"M  c #464463",
"N  c #4C4663",
"B  c #434D63",
"V  c #4C4C64",
"C  c #434C6C",
"Z  c #48456C",
"A  c #534363",
"S  c #584264",
"D  c #534F62",
"F  c #425263",
"G  c #4B5264",
"H  c #425B64",
"J  c #47576B",
"K  c #57546A",
"L  c #464975",
"P  c #455372",
"I  c #634C6A",
"U  c #67556C",
"Y  c #516160",
"T  c #D73F1A",
"R  c #E93F11",
"E  c #FA3F1F",
"W  c #E43E21",
"Q  c #D74B09",
"!  c #D3441D",
"~  c #D74818",
"^  c #CE5218",
"/  c #D85615",
"(  c #DD5209",
")  c #E14F06",
"_  c #E7510F",
"`  c #E14917",
"'  c #E54A18",
"]  c #E85217",
"[  c #F15017",
"{  c #EE631E",
"}  c #DA4725",
"|  c #DD5626",
" . c #E64B29",
".. c #E75926",
"X. c #FF5B2D",
"o. c #F3582D",
"O. c #E94F33",
"+. c #FD5C32",
"@. c #F65F3A",
"#. c #FA5D38",
"$. c #E95A32",
"%. c #EC652F",
"&. c #E76626",
"*. c #F96D2A",
"=. c #E8702E",
"-. c #EB6B37",
";. c #F36534",
":. c #FF6935",
">. c #FF653B",
",. c #F56D3C",
"<. c #FF6C3C",
"1. c #F76A35",
"2. c #EF7134",
"3. c #ED7939",
"4. c #F67333",
"5. c #FC723B",
"6. c #FF5C4B",
"7. c #FF5F47",
"8. c #FA5B52",
"9. c #FE6445",
"0. c #FF6349",
"q. c #FB6C4B",
"w. c #FB6745",
"e. c #FF744C",
"r. c #F57242",
"t. c #EE6A51",
"y. c #FC6957",
"u. c #E76249",
"i. c #9FBA3D",
"p. c #A9BE3A",
"a. c #9DC735",
"s. c #ABC92F",
"d. c #B8CE2F",
"f. c #A8D52E",
"g. c #B6D52E",
"h. c #B7D92C",
"j. c #B9DD2C",
"k. c #BCD32D",
"l. c #ABCE35",
"z. c #AAC53E",
"x. c #A5CC3B",
"c. c #ACCD3B",
"v. c #A6CF33",
"b. c #BFC73B",
"n. c #B3CC3D",
"m. c #BBCC3D",
"M. c #B7C738",
"N. c #ACD534",
"B. c #A9D932",
"V. c #A6D33A",
"C. c #ACD43C",
"Z. c #ADDA3B",
"A. c #A4D838",
"S. c #B6D535",
"D. c #BBD335",
"F. c #B4DA32",
"G. c #BADB35",
"H. c #B6D53C",
"J. c #BBD43C",
"K. c #B4DC3C",
"L. c #BCDB3C",
"P. c #ACE539",
"I. c #B6E23D",
"U. c #B8E537",
"Y. c #BAED31",
"T. c #C6DB2F",
"R. c #C1CE3C",
"E. c #C2CD34",
"W. c #C2DD34",
"Q. c #C2D43D",
"!. c #C3DA3C",
"~. c #C9D43A",
"^. c #D6D838",
"/. c #C0E434",
"(. c #C9E936",
"). c #C2E33B",
"_. c #C7EA39",
"`. c #D2E839",
"'. c #C3F238",
"]. c #98B549",
"[. c #A5BA45",
"{. c #B0BE48",
"}. c #9CC343",
"|. c #ABCC42",
" X c #AAC647",
".X c #B3C342",
"XX c #B3CC42",
"oX c #B4CF4A",
"OX c #B9C746",
"+X c #ACD441",
"@X c #AAD846",
"#X c #B5D443",
"$X c #BBD242",
"%X c #B5DB43",
"&X c #BBDA43",
"*X c #B5D44A",
"=X c #B4D948",
"-X c #BDD548",
";X c #B9E345",
":X c #C3CD43",
">X c #C3CB45",
",X c #C2D343",
"<X c #C2DA43",
"1X c #C6DA48",
"2X c #C6E545",
"3X c #7C8FB3",
"4X c #8B99AB",
"5X c #8696AE",
"6X c #959DAC",
"7X c #9892AF",
"8X c #829CB3",
"9X c #8C97B2",
"0X c #9798B4",
"qX c #AA97AD",
"wX c #97A1AA",
"eX c #9DA1B0",
"rX c #A6A8AA",
"tX c #8E9AC5",
"yX c #EFE7D3",
"uX c #E6E3E4",
"iX c #F8FFEF",
"pX c #FEFCFD",
"aX c #F5FCFB",
"sX c #CECFEA",
/* pixels */
"H.H.H.H.H.H.H.H.H.H.H.H.H.H.H.H.H.H.H.H.H.H.H.H.H.H.H.H.H.H.H.H.H.H.H.H.H.H.H.H.",
"H.H.H.H.H.H.H.H.H.H.H.H.H.H.H.H.H.H.H.H.H.H.S.H.H.H.H.H.H.H.H.H.H.H.H.H.H.H.H.H.",
"H.H.H.H.H.H.H.H.#XH.H.H.H.H.H.H.H.H.H.n.H.H.H.H.H.H.H.H.H.H.H.H.H.H.H.H.#XH.H.H.",
"H.H.H.H.H.H.H.H.H.H.H.H.H.H.K.H.H.H.H.H.H.H.H.H.H.H.H.H.H.H.H.H.H.H.H.H.H.H.H.H.",
"H.H.&XH.H.H.H.H.H.H.H.H.H.H.H.H.H.H.H.H.H.H.H.H.H.H.H.H.H.H.H.H.H.H.H.H.H.H.H.H.",
"H.H.H.H.H.H.H.H.H.H.H.H.H.H.H.H.H.H.&XH.H.H.&XH.H.H.H.H.H.H.H.H.H.H.H.H.H.H.H.H.",
"H.H.H.H.H.H.H.H.H.H.H.H.H.H.H.H.H.H.H.H.H.H.H.H.H.H.H.H.H.H.H.H.H.H.H.H.H.H.H.H.",
"H.H.H.H.H.H.H.H.H.H.H.H.H.H.H.H.H.H.H.H.H.&XH.L.H.H.H.H.H.H.H.H.H.H.H.H.H.H.H.H.",
"H.%XL.J.C.#XL.L.D.|.Q.K.#XH.<XC.I.XXR.F.&X$XV.2XK.D.%XU.|.c.Y.XX#XH.L.m.H.K.H.H.",
"L.n.n.D.G.H.H.n.$XU.D.M.m.V.i.`.XXW.Z.n.$XG.Q.m.*XH.XXB.^.#Xz.L.m.H.H.K.H.H.J.&X",
"K.n.H.K.H.c.I._.D.N.H.=XA.Y.`. XK 6 z b z n J J |.T.U.c.f.!.K.S.I.H.$XJ.H.C.+X#X",
"K.#X#XI.!.J.|.[.%X>XE.P.=X.Xb.l p c q a 2 p g h c p.n.#XJ.G.-X#X XM.H.G.J.H.H.D.",
"C.G.F.B.S.H.K.&XN.c 0 l * M /.p J 4XwXwXqX6Xy N w W.h h B 2 3 F.2X!.F.A.H.&XL.l.",
"F.G.g.v.F.H.#X%XS.x w z S B @Xs C 3X4XrX6X5XP e h {.q g 6 d l n.+Xc.J.L.c.#XI.B.",
"!.J.p.D.`.[.m 3 P g G X h Z B f 3 m 3 7.8.j - l A k = q D P f C i m ]._.H.M.,XL.",
"+X&XQ.J. Xm . J j s yXuXr 1 V < - 4.w.=.:.4.+ 1 2 p F uXsXyXs p 5 O m {.G.H.#X|.",
"B.C.K.P.>Xq V 6.8.<.4X8X<.7.^ w. .;.w.pXaXr.W o.#.^ ,.0XeX8X;.0.A P d $XP.C.H.S.",
"L.m.x.Z.;X8 c ;.1.3.qX7X>.@.` 7.~ *.<.pXpX2. .! y.' :.7X0X0X:.r.2 q 9 -XXX$XH.%X",
"XX!.M.v.>Xz o 3.+.q.0X9Xe.,.Q >./ ;.$.iXiX.. ._ w.Q ,.7XtX0Xw.;.2 Z Y 2X|.$XM.&X",
"&XH.S.T.N.i y f x o.5.<.X.7.} :.O.;.r.aXpX2.}  .<.! #.y.1.4.#.H w + p p.M.`.Q.@X",
"H.Z.J.A.T.OXc + Z 9 F u.{ *.] -.( %.X.e.t.;./ ) 1.[ &.2.w.K 8 f 1 c a.'.S.v.J.J.",
"!.M.#X<XA.z.=X6 d u = I t r g i q 7.w.&.X.w.: e B * C w i + c 2 =X X).n.~.n.U.z.",
"C.G.!.#Xn._.m.$XI.x.6 0 g $ V F 3 < A ..} I > G h A # i 2 G v.K.G.H.G.V.#Xl./.J.",
"$Xd.f.H.L.H.+XK.L.#XB G :   G f s G M _ T M 2 3 f J 7 l q G B.-XH.H.R.H.U.k.h.#X",
"H.#X=XH.H.H.#X*X-XC.R.%Xl.j.$X1 C 4 F q.8.j e A 2 *Xj.C.#XE.#X*X#XH.H.H.#X-X#X#X",
"H.H.S.D.S.H.H.D.G.x.Q.H.).%X3 G $ | ~ 2.3./ & w A > I.!.|.).A.d.=XH.S.H.H.H.H.H.",
"#XH.H.S.H.H.S.S.N.I.#X).p.oXz = } Q ` <.#.` } } Z h .Xx.'.OXC.F.=XH.H.S.S.H.H.H.",
"H.=X=X#XH.S.H.H.J.H.+XXXQ.1X. U L i f / R 2 l Z U . 1XD.H.#XN.&X&XK.S.H.H.H.#XXX",
"J.H.=X#XH.S.H.H.H.J.&X#X<XQ.x @ d z q [ ` V V M @ u $XH.n.J.F.$XH.F.D.H.H.H.S.H.",
"H.S.S.S.H.H.H.H.c.!.H.<Xl.d.K.2 5 - X q j + C 0 6 n.M.@X;XXXW.#XS.S.H.H.H.S.S.S.",
"H.H.D.H.H.H.H.H.&XH.H.z.(.T.x.H.OXH g L * u OX&XD.a./.2X[.K.%X#XH.H.H.H.#XH.S.H.",
"S.H.#XK.H.S.H.H.H.H.H.!.Z..XL.S.G.oXXXR.U.oXU.H.S.%XM.%X&Xd.<Xl.H.H.H.H.H.H.J.&X",
"H.H.H.H.H.H.H.H.#XJ.D.H.#XK.#X#XXXH.S.h.h.S.H.XX#X#XJ.F.S.H.#XH.H.H.H.H.H.H.H.H.",
"H.H.H.H.H.H.H.H.H.H.J.H.H.J.H.H.H.S.g.h.h.g.H.#X#XH.H.D.S.H.H.K.H.H.H.H.H.H.H.H.",
"H.H.H.H.H.H.H.H.H.H.H.H.K.S.J.#X*X#X=X#X#X#X=X*X#XH.S.H.#XH.H.H.H.H.H.H.H.H.H.H.",
"H.H.H.H.H.H.H.H.H.H.&X#XH.D.J.#Xg.S.S.H.J.S.g.h.H.H.H.*X*XH.J.H.H.H.H.H.H.H.H.H.",
"H.H.H.H.H.H.H.H.H.H.$XH.J.S.S.H.H.H.=X-X=X#XH.H.H.S.H.=X#XH.S.H.H.H.H.H.H.H.H.H.",
"H.H.H.H.H.H.H.H.J.H.H.H.H.G.D.H.F.S.D.S.D.H.H.H.H.H.S.H.H.D.H.#XH.H.H.H.H.H.#XH.",
"H.H.H.H.H.H.H.H.H.H.S.H.J.J.H.H.S.S.S.D.S.S.S.H.H.S.H.S.S.S.H.H.H.H.H.H.H.H.H.H.",
"H.H.H.H.H.H.H.H.H.H.J.H.K.H.H.H.H.H.#X#X#XH.S.g.S.H.H.#XH.H.H.H.H.H.H.H.H.H.H.H."
};
