/* XPM */
static char *_dca65bab0e9490894c59dd98115655fT4EwnUdAK5op6a4d[] = {
/* columns rows colors chars-per-pixel */
"40 40 172 2 ",
"   c #C87D5D",
".  c #C97D5D",
"X  c #C97F5C",
"o  c #CA7E5C",
"O  c #CB7F5D",
"+  c #C97C5E",
"@  c #C87D5E",
"#  c #C97E5E",
"$  c #C97E5F",
"%  c #CA7F5F",
"&  c #C97E61",
"*  c #CB7E60",
"=  c #C97D63",
"-  c #CB835B",
";  c #CD825B",
":  c #CA805D",
">  c #C9805F",
",  c #CB815E",
"<  c #CC805C",
"1  c #CC825D",
"2  c #CC805E",
"3  c #CD835E",
"4  c #CC825F",
"5  c #CF865D",
"6  c #CC845E",
"7  c #CE845F",
"8  c #D0875A",
"9  c #D0855E",
"0  c #D1865E",
"q  c #D0875E",
"w  c #D0865F",
"e  c #D1865F",
"r  c #D2875F",
"t  c #D2885B",
"y  c #D58B5C",
"u  c #D58B5E",
"i  c #D68C5D",
"p  c #D78D5E",
"a  c #DA915A",
"s  c #DA915C",
"d  c #DB925F",
"f  c #DC935C",
"g  c #DD945D",
"h  c #DF965F",
"j  c #E69F5F",
"k  c #CB8060",
"l  c #CB8061",
"z  c #CB8063",
"x  c #CC8161",
"c  c #CD8360",
"v  c #CF8560",
"b  c #D08460",
"n  c #D18760",
"m  c #D08661",
"M  c #D18762",
"N  c #D58A60",
"B  c #D48B62",
"V  c #D48A63",
"C  c #D68B63",
"Z  c #D58C61",
"A  c #D78C64",
"S  c #D88E61",
"D  c #D98F62",
"F  c #DD8B65",
"G  c #DE8C66",
"H  c #DE8C67",
"J  c #DF8D67",
"K  c #DF8D68",
"L  c #DD9362",
"P  c #DE9560",
"I  c #DE9562",
"U  c #DD9364",
"Y  c #DC9464",
"T  c #E08E68",
"R  c #E08E69",
"E  c #E18F6A",
"W  c #E09760",
"Q  c #E09762",
"!  c #E19065",
"~  c #E29164",
"^  c #E39265",
"/  c #E29166",
"(  c #E39267",
")  c #E49366",
"_  c #E09764",
"`  c #E09665",
"'  c #E19863",
"]  c #E39A63",
"[  c #E59D62",
"{  c #E69E63",
"}  c #E69E64",
"|  c #E79E67",
" . c #E99C64",
".. c #EA9D65",
"X. c #E99E65",
"o. c #EA9F65",
"O. c #EA9D67",
"+. c #EB9E66",
"@. c #EA9F66",
"#. c #EC9C67",
"$. c #EC9F67",
"%. c #E2906A",
"&. c #E49368",
"*. c #E6956A",
"=. c #E99C68",
"-. c #E89F68",
";. c #EB9E68",
":. c #EA9F68",
">. c #E89F6A",
",. c #ED9D68",
"<. c #E7A060",
"1. c #EBA160",
"2. c #EBA162",
"3. c #EAA063",
"4. c #E9A262",
"5. c #EBA164",
"6. c #E9A264",
"7. c #E9A166",
"8. c #EBA066",
"9. c #EAA267",
"0. c #ECA565",
"q. c #ECA567",
"w. c #EDA666",
"e. c #EEA767",
"r. c #EFA964",
"t. c #EAA268",
"y. c #EFA568",
"u. c #EDA668",
"i. c #EEA769",
"p. c #EFA868",
"a. c #F0A665",
"s. c #F1A567",
"d. c #F1A766",
"f. c #F0A667",
"g. c #F2A766",
"h. c #F2AD62",
"j. c #F3AE63",
"k. c #F5AD63",
"l. c #F6AE62",
"z. c #F1A864",
"x. c #F2A964",
"c. c #F2A965",
"v. c #F0AA65",
"b. c #F1AB65",
"n. c #F3AA65",
"m. c #F2A867",
"M. c #F3A867",
"N. c #F3AA66",
"B. c #F4AB66",
"V. c #F4AB67",
"C. c #F2AC67",
"Z. c #F4AC64",
"A. c #F5AD65",
"S. c #F4AF64",
"D. c #F6AE64",
"F. c #F5AC67",
"G. c #F4AE66",
"H. c #F5AF67",
"J. c #F6AE66",
"K. c #F7AF67",
"L. c #F1A768",
"P. c #F0A669",
"I. c #F2A668",
"U. c #F1A76A",
"Y. c #F3A968",
"T. c #F2A869",
"R. c #F3AD68",
"E. c #F5AC68",
"W. c #F6AD68",
"Q. c #F7B062",
"!. c #F8B066",
"~. c #F8B068",
/* pixels */
"2 2 o z z o o & @ o & & 1 z - - 1 : X o O o 1 1 - 1 - z o & @ @ z o o z 1 1 2 2 ",
"2 2 1 1 6 6 n q n V M v 1 1 z @ z 1 6 q n 9 2 z & 1 1 6 v V V 6 q 9 v c z 1 2 2 ",
"2 1 1 1 9 D I I I I I Y B 1 @ & 2 V U ] Q U V v & @ 1 C U ` I ] g I D 9 o o 1 2 ",
"x x o 2 i ] w.v.p.p.p.t.I 8 1 z q I 7.s.w.7.L q = 1 - I 7.w.w.i.s.w.] 9 - o z x ",
"x 6 9 y j 0.F.!.H.F.Q.p.<.a N A s [ n.!.!.n.[ a A i a <.C.Q.F.Q.!.!.w.j y 6 6 & ",
"o 2 D ] 7.m.F.k.Q.F.W.Q.r.<.| 7.7.w.E.!.K.E.s.4.=.[ 4.v.F.F.Q.H.F.n.n.w.] D v & ",
"o v L 7.F.F.m.v.s.m.s.m.m.C.R.R.C.m.T.s.P.T.n.C.R.R.C.T.P.r.T.P.n.n.F.n.w.I n o ",
"z 9 j v.!.k.n.n.o.o.+.7.i.W.R.Q.F.z.8.=.=.#.s.F.!.Q.F.P.8.+.| +.n.n.k.F.w.j 9 1 ",
"X 9 ] s.F.F.m.8.*.T T &.,.M.n.h.n...( T T ` +.m.r.C.n.,.&.! T *.8.P.F.F.s.I 9 O ",
"o 6 Q i.!.F.s.8.&.T H &.#.n.!.k.M.=.( T T ~ +.m.!.Q.P.,.&.H H &.+.T.!.!.m.` 6 @ ",
"o 6 ` T.!.!.P.+.! H H ~ #.m.F.Q.s.o.~ T T ( o.s.!.!.r.#.! H H ! ,.T.!.!.p.U V @ ",
"& v I 7.m.W.T.+.! T H ~ +.m.F.h.M. .~ T T ( +.m.r.Q.i.+.! H T ! =.P.W.v.0.L 6 o ",
"z 2 u g j s.P.7.&.T H ( #.s.k.h.n.o.~ ! K ~ +.m.h.k.s.#.&.H ! &.+.T.s.j g N 6 z ",
"z 2 6 q g 5.s.o.( T H %.#.n.F.h.P.#.! T J ~ +.s.k.k.n.#.( H T T +.P.4.g t 6 2 & ",
"- z o 2 p | P.5.( ! H &.#.n.F.k.M.=.! H J ~ +.m.h.F.M.#.( H ! &.5.P.=.p 2 o 1 1 ",
"6 2 & o C t.P.5.( T H ! #.s.k.h.n. .( T J ~ +.T.h.k.s.#.( T T T 4.U.t.N & & x 6 ",
"z 1 2 6 s t.i.4.~ T J %.#.T.Q.h.s. .~ ! H !  .n.F.F.n.,.~ K T %.4.P.7.s 6 2 2 2 ",
"1 6 C I 7.s.P.+.&.T J ~ #.T.R.Q.n.=.! H T !  .s.h.Q.m.#.~ K ! ( 8.P.P.+.I C x 1 ",
"o v I 7.m.F.P.+.%.! K ~ #.m.R.C.s. .~ T ! ! +.s.F.Q.T.#.~ K T %.+.P.F.n.0.I x & ",
"o 9 I m.Q.Q.s.+.%.T K ~ ,.n.Q.h.s. .~ T H ~ o.n.Q.C.m.#.~ K ! ( +.m.Q.Q.r.` 9 o ",
"& n ] s.Q.Q.m.+.( T K ~ ,.s.F.Q.m.o.~ T T !  .s.F.!.s.#.%.K T ~ +.s.k.Q.z.` 6 & ",
"o x I 7.m.F.m.+.( ! J %.,.n.Q.F.s. .! H ! ! o.s.h.F.n.#.~ K T &.+.T.F.n.7.U n o ",
"1 6 V I [ T.T.+.%.T J ~ #.m.Q.F.m. .~ H H ! =.n.h.F.E.#.~ K T %.7.P.T.[ L N x 1 ",
"z 1 2 6 L 7.i.4.&.T K ~ #.m.F.h.m.o.~ ! T !  .s.F.Q.P.,.~ K ! ( 7.p.7.L 9 2 1 6 ",
"2 1 & & A >.i.4.T T T ( #.s.k.h.T.+.~ K ! ~ #.n.h.h.s.#.( J ! ~ 1.P.=.A z o & 2 ",
"1 1 o ; p +.P.5.&.! H ( #.M.F.h.s.+.~ K H ~ +.s.Q.F.n.#.( J ! %.4.P.=.i 1 o 1 ; ",
"& 1 6 q f 4.P.+.T T H ( #.n.k.k.m.+.~ T K ~ o.s.h.k.m.#.~ H K %.7.P.4.g q 6 2 z ",
"z 2 N g j m.P.+.&.! H ( #.s.k.h.m.+.~ K K ~ +.n.h.C.m.#.&.H ! &.+.T.s.<.g N v & ",
"o 6 I 7.v.W.I.,.! T H ! +.m.C.h.m. .~ J H ~ =.m.k.F.s.#.~ H J ~ 8.T.W.m.7.U v o ",
"o V U p.!.!.T.=.! H H ! #.T.Q.Q.m.o.~ K ! ~ =.s.Q.F.M.#.%.H H ! =.T.~.~.m.U n @ ",
"o v I p.!.!.P.,.&.T H &.,.P.F.Q.s.+.~ T ! ( +.m.Q.C.E.#.~ J J ~ ,.P.Q.Q.p.I 9 o ",
"o 9 ] s.F.F.P.8.*.T ! &.,.n.F.h.m.+.*.T %.( 7.m.h.C.T.,.&.T %.*.8.P.R.F.T.` 9 X ",
"& q I m.!.k.m.m.o.o.| 7.P.W.Q.!.C.z.#.+.=.+.m.C.k.Q.W.i.7.+.| +.m.v.k.!.r.I q z ",
"o v I 0.F.F.k.m.m.s.T.p.m.m.R.R.C.m.T.s.P.T.T.C.C.C.R.T.m.m.s.m.v.v.n.!.r.I q o ",
"1 9 S ] r.C.F.F.Q.Q.W.Q.r.4.} >.7.m.W.Q.F.F.s.4.| | 4.r.W.F.Q.H.k.n.n.w.] C 6 1 ",
"& 6 6 y I 0.F.Q.W.F.!.r.<.a q A s [ T.!.!.F.[ a C u a <.R.Q.F.H.!.!.w.Q i 9 2 z ",
"x x 1 2 i ] p.r.p.p.0.t.I 8 1 z v I 7.s.s.7.L q z 1 8 g 7.w.r.T.v.w.] i ; O 2 x ",
"6 2 o o 9 D I g I ` I Y C - @ & v V Y I I Y V c & @ 1 C U U ` U j L D 6 O O 2 x ",
"2 2 1 1 x v v q V V v v c 1 1 & z - 9 9 q 9 1 & & z 1 6 V V 6 v 2 9 x v 2 1 1 2 ",
"2 2 1 z 2 o o z @ @ @ & 1 z - - o o 1 o 1 1 X 1 - - 1 & & @ 1 @ o & o x x 2 o x "
};
